<svg width="924" height="693" viewBox="0 0 924 693" fill="none" xmlns="http://www.w3.org/2000/svg">
<path d="M41.3107 420.528H196.469V484.417H170.392V446.605H94.1167V529.725H170.392V555.802H94.1167V638.923H170.392V601.111H196.469V665H41.3107V638.923H64.1281V446.605H41.3107V420.528ZM301.345 638.923H324.162V665H248.539V638.923H271.356V446.605H248.539V420.528H316.339L411.52 628.166V446.605H388.703V420.528H464.326V446.605H441.509V665H396.526L301.345 457.688V638.923ZM493.508 446.605V420.528H562.612V446.605H540.12L598.794 635.337L657.793 446.605H635.301V420.528H704.406V446.605H687.781L619.655 665H578.258L510.132 446.605H493.508ZM854.193 665H765.531V638.923H794.868V588.725L733.587 446.605H717.289V420.528H786.393V446.605H762.272L809.536 556.454L856.801 446.605H833.005V420.528H902.11V446.605H885.485L824.856 587.747V638.923H854.193V665Z" fill="white"/>
<path d="M389.796 332.329L408.369 339.304L421.629 341.242L411.442 338L402.154 334.5L396.61 331.124L391.517 327.795L384.325 322.702L376.687 318.012L369.047 311.643L361.784 308.137L352.871 300.497L347.778 294.13L342.685 287.764L335.045 278.851L329.952 272.484L326.132 262.298C324.01 259.327 319.765 253.13 319.765 252.112C319.765 251.093 318.068 247.443 317.219 245.745L312.126 231.739L310.852 227.919L309.579 215.186L308.306 212.64V176.988L310.852 166.801V162.981L312.126 154.068L313.399 147.702L314.672 142.609L315.946 137.516L317.219 132.5L319.765 127.329L324.859 118.416L327.405 114.596L332.498 106.957L337.591 98.0435L345.231 87.8571L350.324 82.764L356.691 73.8509L365.604 67.4845L377.064 59.8447L391.07 49.6584L405.076 44.5652L416.536 40.7453L431.815 35.6522L439.455 34.3789L485.293 35.6522L494.206 38.1988L506.939 40.7453L515.852 44.5652L531.132 52.205L546.411 59.8447L559.144 71.3044L571.877 82.764L582.063 96.7702L590.976 106.957L597.343 118.416L603.709 134.969L607.529 145.155L611.349 157.888V176.988L610.369 211L606.369 229L597.343 248.292L590.976 261.025L583.337 272.484L572.869 286L562.869 298.5L551.869 308L541.318 314.503L537.869 317.05L533.678 319.596H528.585L527.312 318.323L524.765 315.776L523.492 314.503L520.369 313.5L517.869 312L516.369 309.41L513.369 308L508.869 308.5L505.369 309.41L502.573 311.043L499.3 314.503L496.753 317.05L494.206 319.596L491.66 322.143L490.369 323.5L489.113 324.689L487.869 326L486.369 327.5L484.869 329L484.02 329.783L482.869 331L481.473 332.329L479.869 334L478.927 334.876L477.869 336L476.38 337.422L474.869 339L473.834 339.969L473.369 343.5L474.369 347L474.869 348.5L476.38 350.155V352.702L479.869 354L491.869 353.5L497.369 353L507.659 351.737L515.869 349.5L519.869 348.5L521.369 348L524.369 347L525.869 346L527.312 345.062L527.869 344L529.859 342.516V341L531.369 336.5L532.405 332.329V328.509H533.678L541.318 324.689L552.778 320.87L574.424 306.863L594.796 285.217L607.529 263.571L624.082 234.286L630.369 220.5L634.268 201.18V175.714V150.248L629.175 124.783L617.715 96.7702L607.529 77.6708L594.796 59.8447L574.424 39.472L552.778 22.9193L531.132 12.7329L500.573 3.81988L478.927 0H443.275L419.082 3.81988L394.89 12.7329L374.517 22.9193L361.784 28.0124L345.231 43.2919L329.952 59.8447L317.219 77.6708L296.846 109.503L291.753 134.969L289 176.674L296.846 222.826L312.126 263.571L324.859 285.217L349.051 306.863L370.697 320.87L389.796 332.329Z" fill="#FFFDFD"/>
</svg>
