<svg width="255" height="72" viewBox="0 0 255 72" fill="none" xmlns="http://www.w3.org/2000/svg">
<path d="M0.680001 -5.72205e-06H46.376V18.816H38.696V7.68H16.232V32.16H38.696V39.84H16.232V64.32H38.696V53.184H46.376V72H0.680001V64.32H7.4V7.68H0.680001V-5.72205e-06ZM77.2633 64.32H83.9833V72H61.7113V64.32H68.4313V7.68H61.7113V-5.72205e-06H81.6793L109.711 61.152V7.68H102.991V-5.72205e-06H125.263V7.68H118.543V72H105.295L77.2633 10.944V64.32ZM133.858 7.68V-5.72205e-06H154.21V7.68H147.586L164.866 63.264L182.242 7.68H175.618V-5.72205e-06H195.97V7.68H191.074L171.01 72H158.818L138.754 7.68H133.858ZM240.084 72H213.972V64.32H222.612V49.536L204.564 7.68H199.764V-5.72205e-06H220.116V7.68H213.012L226.932 40.032L240.852 7.68H233.844V-5.72205e-06H254.196V7.68H249.3L231.444 49.248V64.32H240.084V72Z" fill="white"/>
</svg>
