<svg width="862" height="245" viewBox="0 0 862 245" fill="none" xmlns="http://www.w3.org/2000/svg">
<path d="M0.310694 0.527927H155.469V64.4166H129.392V26.605H53.1167V109.725H129.392V135.802H53.1167V218.923H129.392V181.111H155.469V245H0.310694V218.923H23.1281V26.605H0.310694V0.527927ZM260.345 218.923H283.162V245H207.539V218.923H230.356V26.605H207.539V0.527927H275.339L370.52 208.166V26.605H347.703V0.527927H423.326V26.605H400.509V245H355.526L260.345 37.6877V218.923ZM452.508 26.605V0.527927H521.612V26.605H499.12L557.794 215.337L616.793 26.605H594.301V0.527927H663.406V26.605H646.781L578.655 245H537.258L469.132 26.605H452.508ZM813.193 245H724.531V218.923H753.868V168.725L692.587 26.605H676.289V0.527927H745.393V26.605H721.272L768.536 136.454L815.801 26.605H792.005V0.527927H861.11V26.605H844.485L783.856 167.747V218.923H813.193V245Z" fill="white"/>
</svg>
