<svg width="1409" height="782" viewBox="0 0 1409 782" fill="none" xmlns="http://www.w3.org/2000/svg">
<path d="M303.092 390.715H451.06V451.643H426.191V415.583H353.451V494.852H426.191V519.72H353.451V598.989H426.191V562.929H451.06V623.857H303.092V598.989H324.852V415.583H303.092V390.715ZM551.076 598.989H572.836V623.857H500.717V598.989H522.477V415.583H500.717V390.715H565.375L656.145 588.731V415.583H634.385V390.715H706.504V415.583H684.744V623.857H641.846L551.076 426.152V598.989ZM734.333 415.583V390.715H800.235V415.583H778.786L834.74 595.569L891.005 415.583H869.556V390.715H935.458V415.583H919.604L854.635 623.857H815.156L750.187 415.583H734.333ZM1078.3 623.857H993.751V598.989H1021.73V551.117L963.287 415.583H947.744V390.715H1013.65V415.583H990.642L1035.72 520.342L1080.79 415.583H1058.1V390.715H1124V415.583H1108.15L1050.33 550.184V598.989H1078.3V623.857Z" fill="#063233"/>
<path d="M536.394 709.558C536.355 708.703 536.161 708.062 535.811 707.635C535.462 707.168 534.821 706.896 533.888 706.819C533.616 707.013 533.247 707.674 532.781 708.8C532.353 709.888 532.081 711.054 531.965 712.298C531.576 714.163 531.382 716.028 531.382 717.893C531.421 719.797 531.731 721.196 532.314 722.09C532.392 722.245 532.47 722.303 532.547 722.264C532.742 722.264 533.053 721.876 533.48 721.099C535.539 717.368 536.511 713.522 536.394 709.558ZM538.201 720.691L537.327 722.964C537.327 723.042 536.763 723.877 535.637 725.47C535.287 726.208 534.626 726.616 533.655 726.694C532.722 726.772 531.809 726.675 530.915 726.403C529.711 725.975 528.798 725.47 528.176 724.887C527.554 724.304 526.933 723.333 526.311 721.973C525.728 720.574 525.417 719.428 525.378 718.534C525.184 717.252 525.087 716.436 525.087 716.086V714.687C525.087 713.288 525.145 712.472 525.262 712.239C525.301 712.084 525.398 711.676 525.553 711.015C525.747 709.383 526.214 707.829 526.952 706.352C528.39 703.516 529.866 702.059 531.382 701.981H531.673C531.751 702.02 531.867 702.039 532.023 702.039H532.781C534.141 702.156 534.976 702.272 535.287 702.389C535.87 702.544 536.375 702.622 536.802 702.622L538.318 702.914C538.784 702.875 539.386 702.972 540.125 703.205C540.902 703.438 541.31 703.613 541.349 703.73C541.426 703.846 541.543 704.274 541.698 705.012C541.854 705.75 541.951 706.294 541.99 706.644C542.067 706.955 542.126 707.285 542.165 707.635C542.475 710.471 542.981 713.114 543.68 715.562C543.719 715.678 543.758 715.853 543.797 716.086C543.835 716.319 543.971 716.786 544.205 717.485C544.438 718.146 544.613 718.709 544.729 719.175C544.846 719.642 545.059 720.263 545.37 721.04C545.603 721.623 545.953 722.303 546.419 723.08C547.274 724.285 546.827 725.218 545.079 725.878C544.846 725.956 544.438 725.995 543.855 725.995C543.738 725.995 543.369 725.8 542.747 725.412C542.359 725.412 541.99 725.198 541.64 724.771L541.174 724.654C540.902 724.382 540.669 724.246 540.474 724.246C540.397 724.168 539.697 722.595 538.376 719.525C538.259 719.952 538.201 720.341 538.201 720.691ZM564.522 695.103L564.93 691.664L564.988 689.858C564.988 689.352 565.085 688.964 565.279 688.692L565.862 687.876C566.911 687.06 567.591 686.594 567.902 686.477C568.213 686.36 568.66 686.38 569.243 686.535C569.865 686.652 570.234 686.768 570.35 686.885L570.991 687.41C571.341 687.604 571.516 687.915 571.516 688.342C571.71 688.575 571.769 688.75 571.691 688.867C571.458 689.139 571.069 691.431 570.525 695.744L570.059 703.671L569.767 705.245C569.767 705.75 569.787 706.042 569.826 706.119V707.168C569.748 707.946 569.67 708.431 569.593 708.626C569.593 708.82 569.554 709.034 569.476 709.267C569.554 709.344 569.593 709.655 569.593 710.199C569.593 710.704 569.534 711.015 569.418 711.132C569.34 711.754 569.301 712.356 569.301 712.939C569.301 713.483 569.34 714.066 569.418 714.687C569.534 715.27 569.573 715.853 569.534 716.436L569.767 718.651V719.525C569.845 720.224 569.884 720.788 569.884 721.215L570.175 724.246L570.409 725.82C570.525 726.48 570.467 727.122 570.234 727.743C570.039 728.365 569.729 728.754 569.301 728.909C568.097 729.414 566.775 729.084 565.338 727.918H564.871C564.599 727.607 564.386 727.18 564.23 726.636C563.919 726.48 563.783 726.208 563.822 725.82C563.861 725.431 563.783 725.082 563.589 724.771C563.395 724.46 563.298 724.188 563.298 723.955C563.298 723.45 563.259 723.003 563.181 722.614L563.239 722.148C563.123 722.031 563.065 721.856 563.065 721.623L562.948 720.574V720.108C562.948 719.797 562.929 719.583 562.89 719.467C562.89 719.35 562.948 719.156 563.065 718.884C562.948 718.728 562.929 718.165 563.006 717.194C563.239 714.202 563.356 712.142 563.356 711.015L563.414 709.616V707.926C563.453 706.994 563.473 705.808 563.473 704.371C563.511 702.933 563.589 702.156 563.706 702.039L563.647 701.515C563.647 700.582 563.783 699.319 564.055 697.726C564.366 696.094 564.522 695.22 564.522 695.103ZM579.865 688.575C579.903 688.536 580.273 688.478 580.972 688.4C582.099 688.206 582.876 688.284 583.303 688.634C583.77 688.944 584.1 689.294 584.294 689.683C584.372 690.926 584.197 692.539 583.77 694.52C583.342 695.803 582.973 696.755 582.662 697.376L582.079 698.251C581.963 698.562 581.71 698.892 581.322 699.242C580.933 699.591 580.642 699.766 580.447 699.766C580.292 699.727 580.001 699.591 579.573 699.358C579.185 699.086 578.951 698.892 578.874 698.775C578.835 698.659 578.796 698.523 578.757 698.367L578.466 697.202L577.3 695.744C577.067 695.278 576.95 694.812 576.95 694.346C576.834 693.258 576.97 692.422 577.358 691.839C577.358 691.762 577.417 691.567 577.533 691.256C577.727 690.402 578.505 689.508 579.865 688.575ZM578.116 714.746C578.116 714.396 578.174 713.93 578.291 713.347C578.446 712.725 578.485 712.298 578.407 712.064C578.369 711.831 578.369 711.171 578.407 710.083C578.524 709.616 578.543 709.092 578.466 708.509C578.194 707.654 578.116 707.032 578.233 706.644C578.349 706.255 578.602 705.828 578.99 705.362C579.379 704.856 579.806 704.507 580.273 704.312C580.739 704.118 581.438 704.138 582.371 704.371C582.604 704.487 582.993 704.876 583.537 705.536C583.653 705.653 583.789 706.1 583.945 706.877C584.139 707.654 584.255 708.509 584.294 709.442C584.372 710.335 584.43 711.656 584.469 713.405C584.508 715.115 584.586 717.427 584.702 720.341C584.819 723.216 584.838 725.004 584.761 725.703C584.722 726.403 584.469 726.927 584.003 727.277C583.575 727.666 583.187 727.743 582.837 727.51C582.526 727.316 582.196 727.18 581.846 727.102C581.225 727.102 580.681 726.85 580.214 726.344C580.059 726.306 579.69 726.131 579.107 725.82C578.524 725.47 578.155 724.848 577.999 723.955C577.805 723.566 577.747 722.303 577.825 720.166V718.068L578.116 716.086V714.746ZM593.769 724.13C593.808 724.091 593.73 723.527 593.536 722.439C593.536 722.206 593.497 721.39 593.42 719.991V718.651C593.536 718.107 593.536 717.699 593.42 717.427L593.478 716.669C593.478 716.125 593.497 715.717 593.536 715.445C593.614 715.134 593.594 714.668 593.478 714.046C593.478 712.997 593.478 712.259 593.478 711.831C593.517 711.365 593.478 710.86 593.361 710.316C593.4 710.16 593.42 709.597 593.42 708.626C593.497 708.392 593.556 708.101 593.594 707.751L589.922 707.868C588.757 707.946 587.999 707.654 587.649 706.994C587.338 706.566 587.455 705.964 587.999 705.187C588.154 704.954 589.009 704.74 590.564 704.546L591.205 704.429L593.653 703.73C593.73 703.419 593.75 703.05 593.711 702.622L593.886 700.699C593.886 700.077 593.944 699.358 594.061 698.542C594.061 698.076 594.119 697.532 594.236 696.91C594.236 696.444 594.274 695.919 594.352 695.336C594.352 694.948 594.43 693.685 594.585 691.548C594.741 691.237 594.877 690.829 594.993 690.324C594.838 690.168 594.916 689.76 595.226 689.1C595.226 688.517 595.809 687.701 596.975 686.652L598.141 685.719C598.801 685.253 599.695 684.787 600.822 684.32C601.133 684.087 601.89 684.107 603.095 684.379C603.212 684.379 603.561 684.32 604.144 684.204L606.184 684.437C607.972 684.437 609.196 685.02 609.856 686.186C610.05 686.574 610.089 687.021 609.973 687.526C609.895 688.77 609.176 689.333 607.816 689.216C606.456 689.216 605.601 689.236 605.252 689.275C603.93 689.624 603.076 690.091 602.687 690.674C601.793 691.995 601.23 693.083 600.997 693.938C600.764 694.754 600.589 695.725 600.472 696.852C600.317 698.872 600.2 700.058 600.122 700.407C600.084 700.718 600.025 701.087 599.948 701.515C599.909 701.942 600.006 702.234 600.239 702.389C600.394 702.389 600.666 702.331 601.055 702.214C601.327 701.942 601.929 701.864 602.862 701.981C602.978 701.942 603.037 701.942 603.037 701.981C603.076 701.981 603.134 701.981 603.212 701.981L604.144 701.864L606.242 701.981C607.175 702.098 607.777 702.389 608.049 702.855C608.36 703.283 608.399 703.71 608.166 704.138C607.933 704.565 607.544 704.876 607 705.07C602.959 705.964 600.492 706.527 599.598 706.76C599.559 707.227 599.52 707.654 599.481 708.043C599.442 708.431 599.423 708.82 599.423 709.208V713.696L599.598 715.736L599.54 716.378V717.485L599.481 718.826C599.676 721.079 599.909 723.08 600.181 724.829C600.453 725.8 600.589 726.461 600.589 726.811C600.589 727.51 600.103 728.093 599.132 728.559C597.15 729.414 595.79 729.317 595.052 728.268C595.013 728.19 594.954 728.093 594.877 727.976C594.838 727.899 594.818 727.84 594.818 727.802L594.585 727.16C594.585 727.122 594.469 726.539 594.236 725.412L593.944 724.771L593.769 724.13ZM621.43 707.635V706.994C621.43 706.566 621.41 706.352 621.371 706.352L621.022 706.236C620.75 706.236 620.536 706.197 620.38 706.119C620.108 706.197 619.895 706.314 619.739 706.469C619.234 706.78 618.884 707.149 618.69 707.576L617.408 710.141C616.825 711.346 616.495 712.9 616.417 714.804C617.427 715.231 618.166 715.212 618.632 714.746C618.904 714.512 619.137 714.24 619.331 713.93C619.409 713.658 619.564 713.405 619.798 713.172C620.031 712.9 620.264 712.259 620.497 711.248C621.119 710.277 621.43 709.072 621.43 707.635ZM626.617 708.451V709.092C626.539 711.462 625.84 713.599 624.519 715.503C624.324 715.775 624.052 716.086 623.703 716.436L622.42 717.718C622.148 717.99 621.799 718.243 621.371 718.476L620.089 718.826C619.972 718.748 619.642 718.67 619.098 718.592C618.671 718.748 618.302 718.709 617.991 718.476C617.952 718.476 617.738 718.398 617.35 718.243C617 718.087 616.553 717.99 616.009 717.951C616.087 718.573 616.126 719.253 616.126 719.991L616.825 722.672C617.252 723.488 617.66 724.013 618.049 724.246C618.476 724.44 618.923 724.557 619.39 724.596C619.895 724.596 620.264 724.538 620.497 724.421C620.769 724.304 621.216 724.13 621.838 723.896L623.003 723.314C623.819 722.847 624.519 722.964 625.102 723.663C625.412 724.013 625.548 724.479 625.51 725.062C625.471 725.606 625.238 726.111 624.81 726.578C624.577 727.122 623.975 727.627 623.003 728.093C622.964 728.093 622.79 728.171 622.479 728.326C620.73 729.181 618.787 729.298 616.65 728.676L615.543 728.151C615.426 728.151 615.31 728.093 615.193 727.976C614.727 727.86 614.222 727.568 613.678 727.102C613.134 726.636 612.745 726.247 612.512 725.936C612.318 725.626 612.182 725.412 612.104 725.295C612.026 725.179 611.89 724.926 611.696 724.538C611.035 723.294 610.55 722.109 610.239 720.982L609.889 719.292C609.967 719.136 609.986 718.69 609.947 717.951V717.019C609.598 716.397 609.811 714.979 610.588 712.764C611.21 709.811 611.715 708.082 612.104 707.576L612.862 706.061C612.862 706.022 613.095 705.731 613.561 705.187C613.639 704.992 614.086 704.604 614.902 704.021C615.057 703.788 615.29 703.652 615.601 703.613C615.756 703.458 616.009 703.322 616.359 703.205C616.67 702.933 617.136 702.758 617.758 702.68C618.34 702.486 619.234 702.428 620.439 702.506C623.198 702.739 625.082 703.904 626.092 706.003L626.5 707.285C626.5 707.479 626.559 707.712 626.675 707.984C626.636 708.062 626.617 708.218 626.617 708.451ZM631.715 706.527L631.657 706.061C631.657 705.867 631.773 705.575 632.007 705.187C632.201 704.876 632.492 704.507 632.881 704.079C633.269 703.652 633.503 703.399 633.58 703.322C634.085 702.972 634.532 702.758 634.921 702.68C635.193 702.486 635.776 702.292 636.669 702.098H637.311C637.544 702.098 637.719 702.117 637.835 702.156C637.952 702.195 638.36 702.272 639.059 702.389C640.147 702.311 641.235 702.447 642.323 702.797C642.595 702.991 642.809 703.147 642.964 703.263C643.12 703.38 643.333 703.555 643.605 703.788C643.916 703.982 644.266 704.235 644.655 704.546C645.082 704.818 645.645 705.264 646.345 705.886C647.744 707.168 648.191 708.47 647.685 709.791L647.161 710.899C646.578 711.482 645.956 711.676 645.296 711.482L644.771 711.423C644.344 711.19 643.994 710.724 643.722 710.024C643.372 709.714 643.139 709.5 643.023 709.383C641.935 708.295 640.769 707.596 639.525 707.285C638.865 707.324 638.224 707.674 637.602 708.334C636.98 708.995 637 709.85 637.66 710.899C637.66 711.248 637.699 711.462 637.777 711.54C637.855 711.618 638.029 711.909 638.301 712.414C638.807 713.036 639.195 713.56 639.467 713.988C639.661 714.532 639.972 714.92 640.4 715.154L640.749 715.911C640.866 715.95 641.41 716.28 642.381 716.902C642.615 717.096 642.848 717.388 643.081 717.776C643.081 717.776 643.839 718.612 645.354 720.283C645.587 720.516 645.82 720.885 646.053 721.39C646.52 721.856 646.753 722.284 646.753 722.672C646.792 723.061 646.714 723.488 646.52 723.955C646.52 724.382 646.325 724.732 645.937 725.004C645.587 725.276 645.315 725.509 645.121 725.703C644.965 725.859 644.324 726.286 643.197 726.986C643.12 727.18 642.226 727.627 640.516 728.326L638.768 728.792C638.729 728.792 638.554 728.812 638.243 728.851C637.932 728.928 637.427 728.967 636.728 728.967H636.261C636.067 729.045 635.62 729.084 634.921 729.084C633.677 729.045 632.589 728.754 631.657 728.21C631.463 728.132 631.346 728.035 631.307 727.918C630.53 726.675 630.141 726.15 630.141 726.344C629.986 726.15 629.869 725.762 629.792 725.179C629.753 724.596 629.714 724.246 629.675 724.13C629.636 723.974 629.695 723.76 629.85 723.488C630.2 722.867 630.899 722.828 631.948 723.372L632.706 723.78C633.056 724.13 633.483 724.343 633.988 724.421C634.26 724.382 634.591 724.382 634.979 724.421C635.368 724.46 635.737 724.46 636.087 724.421L637.136 723.955H637.077C637.116 723.916 637.233 723.896 637.427 723.896C637.621 723.858 637.913 723.78 638.301 723.663C639.428 723.314 639.875 722.77 639.642 722.031L639.234 721.332C638.807 720.438 638.34 719.797 637.835 719.408L637.369 719.117C635.815 717.602 634.591 716.319 633.697 715.27C633.58 715.192 633.328 714.979 632.939 714.629C632.589 714.279 632.317 713.696 632.123 712.88C631.773 712.142 631.579 711.637 631.54 711.365V710.258C631.54 710.18 631.521 709.947 631.482 709.558C631.443 709.17 631.443 708.839 631.482 708.567C631.56 708.256 631.56 708.023 631.482 707.868C631.443 707.712 631.521 707.266 631.715 706.527ZM655.87 705.711L655.928 705.187C655.112 705.109 654.529 705.051 654.18 705.012C653.869 704.934 653.344 704.856 652.606 704.779C651.868 704.701 651.285 704.584 650.857 704.429C650.041 704.157 649.575 703.458 649.459 702.331C649.342 701.165 649.711 700.446 650.566 700.174C651.343 699.98 651.887 699.883 652.198 699.883C652.509 699.883 653.092 699.844 653.947 699.766C654.374 699.533 654.957 699.397 655.695 699.358L656.569 699.125C656.569 699.164 656.725 699.125 657.036 699.008L657.327 697.784C657.327 697.163 657.502 696.541 657.852 695.919C657.852 695.647 658.104 694.89 658.609 693.646C658.609 693.491 658.959 692.364 659.659 690.266C659.814 690.071 660.397 689.624 661.407 688.925C662.029 688.614 662.903 688.828 664.03 689.566C664.652 689.838 665.079 690.207 665.312 690.674C665.079 690.907 664.963 691.451 664.963 692.306C664.924 692.578 664.652 694.015 664.147 696.619V698.251C664.457 698.29 664.963 698.387 665.662 698.542C666.4 698.698 667.275 698.872 668.285 699.067C670.228 699.455 671.452 700.232 671.957 701.398C672.151 702.253 672.112 702.855 671.84 703.205C671.568 703.555 670.908 703.807 669.859 703.963C669.004 704.002 667.877 704.021 666.478 704.021C665.118 704.021 664.108 704.118 663.447 704.312C663.369 705.012 663.331 705.556 663.331 705.944L663.272 706.819C663.272 707.091 663.097 708.528 662.748 711.132C662.515 711.482 662.32 713.288 662.165 716.552V720.807C662.165 721.507 662.223 722.167 662.34 722.789C662.379 723.644 662.476 724.246 662.631 724.596C662.631 724.946 662.728 725.684 662.923 726.811C662.456 727.938 661.679 728.501 660.591 728.501C659.542 728.501 658.609 728.112 657.793 727.335L657.152 726.403C657.036 726.092 656.939 725.878 656.861 725.762C656.822 725.645 656.783 725.509 656.744 725.354C656.472 724.576 656.259 724.091 656.103 723.896C655.87 723.586 655.753 723.352 655.753 723.197C655.753 723.042 655.753 722.847 655.753 722.614C655.676 721.954 655.579 721.39 655.462 720.924C655.268 720.73 655.171 720.069 655.171 718.942C655.248 716.883 655.248 715.698 655.171 715.387C655.287 715.27 655.307 714.532 655.229 713.172L655.404 711.89C655.404 711.734 655.481 711.151 655.637 710.141C655.559 709.986 655.54 709.578 655.579 708.917C655.617 708.218 655.676 707.732 655.753 707.46C655.831 706.994 655.87 706.411 655.87 705.711ZM672.052 711.015C671.974 710.277 671.955 709.791 671.994 709.558V708.043L672.285 705.595C672.285 705.517 672.596 704.429 673.218 702.331C673.451 701.864 673.742 701.379 674.092 700.874C674.325 700.446 674.83 700.155 675.607 699.999C675.802 699.805 676.754 699.922 678.463 700.349C678.697 700.582 678.852 701.864 678.93 704.196L678.871 706.702V709.966L678.58 712.356L678.405 716.494C678.522 716.688 678.541 716.98 678.463 717.368C678.425 717.757 678.463 718.456 678.58 719.467C678.852 721.332 679.182 722.42 679.571 722.731C679.649 722.808 679.979 722.77 680.562 722.614C680.562 722.614 680.97 721.818 681.786 720.224L682.427 718.243V718.184L682.66 717.66C682.777 716.922 682.99 716.3 683.301 715.795C683.223 715.367 683.534 714.202 684.234 712.298L684.175 711.773L684.35 710.84L684.175 708.8C683.942 707.557 683.826 706.644 683.826 706.061L683.593 703.904C683.593 703.283 683.709 702.292 683.942 700.932C684.098 700.699 684.292 700.543 684.525 700.466C684.758 700.349 685.38 700.155 686.39 699.883C686.623 699.922 686.915 699.98 687.265 700.058C687.653 700.096 688.042 700.232 688.43 700.466C688.897 700.543 689.188 700.679 689.305 700.874C689.421 701.146 689.538 702.195 689.654 704.021C689.771 705.07 689.829 706.003 689.829 706.819C689.946 708.14 690.004 709.344 690.004 710.432L690.062 711.54V712.356C689.985 713.094 689.965 713.891 690.004 714.746C690.082 715.562 690.121 716.008 690.121 716.086C690.237 718.029 690.295 719.35 690.295 720.05C690.373 723.003 690.393 724.674 690.354 725.062C690.354 725.412 690.393 725.664 690.47 725.82L690.354 727.627C690.354 729.064 690.257 730.366 690.062 731.532C690.062 731.998 690.023 732.426 689.946 732.814C689.79 733.669 689.654 734.524 689.538 735.379L688.897 736.428C688.625 736.661 688.489 736.797 688.489 736.836C688.489 736.914 688.469 736.972 688.43 737.011C688.314 737.244 687.673 737.749 686.507 738.526C686.196 738.643 685.885 738.798 685.574 738.992C685.302 739.226 684.797 739.42 684.059 739.575C682.777 739.731 681.436 739.556 680.037 739.051L678.638 738.584C676.462 737.496 675.297 736.836 675.141 736.603C675.025 736.408 674.966 736.234 674.966 736.078C674.383 734.602 674.442 733.514 675.141 732.814C675.841 732.115 676.929 732.231 678.405 733.164C678.444 733.242 679.085 733.65 680.329 734.388C681.222 734.738 681.863 734.951 682.252 735.029L683.068 734.854L683.534 734.271L683.942 733.572C683.942 733.494 684.059 733.28 684.292 732.931C684.292 732.698 684.428 732.095 684.7 731.124C684.661 730.93 684.681 730.541 684.758 729.958C684.836 729.375 684.875 728.967 684.875 728.734V727.219C684.953 727.024 684.953 726.422 684.875 725.412C684.914 725.412 684.933 725.237 684.933 724.887C684.933 724.46 684.894 723.974 684.817 723.43C684.622 723.974 684.331 724.635 683.942 725.412L682.951 726.344C682.796 726.655 682.602 726.85 682.369 726.927C682.135 727.005 681.572 727.005 680.678 726.927C680.678 726.966 680.503 727.044 680.154 727.16C679.299 727.199 678.658 727.16 678.23 727.044C677.803 727.044 677.473 727.005 677.239 726.927C676.695 726.927 676.19 726.714 675.724 726.286C674.558 726.053 673.645 724.829 672.985 722.614C672.674 720.166 672.518 718.709 672.518 718.243C672.557 717.738 672.499 716.96 672.343 715.911V714.629C672.266 714.512 672.188 713.968 672.11 712.997C672.033 711.987 672.013 711.326 672.052 711.015ZM703.115 688.284L704.572 687.992C705.505 688.109 706.204 688.362 706.671 688.75C707.176 689.139 707.409 689.586 707.37 690.091C706.787 692.072 706.321 694.151 705.971 696.327V697.202C705.816 699.028 705.602 700.582 705.33 701.864L703.931 715.154V719.175C703.892 722.245 704.067 724.674 704.456 726.461L704.572 727.16C704.533 727.627 704.184 727.938 703.523 728.093C702.901 728.287 702.493 728.365 702.299 728.326C702.105 728.287 701.891 728.229 701.658 728.151L700.084 727.568C699.463 727.258 698.783 726.694 698.044 725.878C697.578 725.451 697.384 725.14 697.461 724.946C697.384 724.79 697.189 723.022 696.879 719.642C696.956 718.942 696.995 718.359 696.995 717.893V716.902C696.995 716.125 697.015 715.562 697.053 715.212C697.053 715.134 697.092 714.668 697.17 713.813C697.364 711.598 697.481 710.394 697.52 710.199V709.267C697.52 706.974 697.714 705.128 698.103 703.73C698.025 703.419 697.986 703.127 697.986 702.855C698.375 702.117 698.511 700.602 698.394 698.309C699.055 695.978 699.443 694.423 699.56 693.646C699.676 692.83 699.851 692.208 700.084 691.781C700.084 691.082 700.395 690.382 701.017 689.683C701.639 688.944 702.338 688.478 703.115 688.284ZM723.217 707.635C723.372 707.052 723.353 706.314 723.159 705.42C722.887 705.187 722.517 705.07 722.051 705.07C721.468 705.07 720.944 705.614 720.477 706.702C719.856 707.635 719.389 708.664 719.079 709.791H719.02C718.593 711.423 718.379 712.298 718.379 712.414C719.001 712.57 719.506 712.647 719.895 712.647C720.283 712.608 720.73 712.395 721.235 712.006C722.129 711.151 722.789 709.694 723.217 707.635ZM723.042 716.028L720.885 716.203C719.681 716.203 718.729 716.086 718.029 715.853L718.204 716.96C718.321 720.186 719.215 722.303 720.885 723.314C721.352 723.508 721.74 723.605 722.051 723.605C722.362 723.605 722.77 723.45 723.275 723.139C723.431 722.983 723.567 722.77 723.683 722.498C723.722 722.148 723.916 721.992 724.266 722.031C725.859 720.011 727.064 719.214 727.88 719.642C728.696 720.186 729.104 720.613 729.104 720.924C729.104 721.079 729.007 721.254 728.812 721.448V721.798C728.812 722.187 728.56 722.886 728.055 723.896C727.588 724.907 727.083 725.762 726.539 726.461C726.267 727.044 725.917 727.452 725.49 727.685C724.247 728.462 722.925 728.773 721.527 728.618C721.216 728.579 721.002 728.501 720.885 728.384C720.575 728.307 720.341 728.287 720.186 728.326L719.72 728.268C719.37 728.268 719.079 728.19 718.845 728.035C718.457 727.802 718.185 727.685 718.029 727.685C717.019 727.296 716.397 727.005 716.164 726.811C715.97 726.616 715.795 726.48 715.64 726.403C715.484 726.325 715.115 725.917 714.532 725.179C714.027 724.751 713.736 724.479 713.658 724.363C713.425 724.013 713.211 723.76 713.017 723.605C712.861 723.45 712.764 723.1 712.725 722.556C712.57 722.362 712.492 722.109 712.492 721.798L712.259 721.332C712.259 721.06 712.143 720.846 711.909 720.691C711.676 720.458 711.56 720.166 711.56 719.816V719.35C711.404 719.272 711.365 719.039 711.443 718.651V717.135L711.385 716.611V716.203C711.346 716.047 711.385 715.717 711.501 715.212L711.443 714.687C711.482 714.648 711.54 714.338 711.618 713.755C711.773 712.939 711.948 712.434 712.143 712.239V711.715C712.181 711.598 712.201 711.443 712.201 711.248C712.201 711.054 712.24 710.84 712.317 710.607C712.434 710.374 712.745 709.5 713.25 707.984L714.183 705.944C714.455 705.362 714.882 704.72 715.465 704.021C715.504 703.827 715.659 703.477 715.931 702.972L716.689 702.272C716.922 701.923 717.272 701.67 717.738 701.515C718.282 701.243 718.69 701.107 718.962 701.107L720.594 700.874C720.788 700.912 720.924 700.932 721.002 700.932H721.76C722.615 701.01 723.314 701.184 723.858 701.456C725.024 701.806 725.879 702.253 726.423 702.797C727.627 704.157 728.229 705.459 728.229 706.702C728.229 707.946 728.035 709.014 727.647 709.908C726.675 712.123 725.976 713.522 725.548 714.104C724.849 715.387 724.013 716.028 723.042 716.028ZM738.073 721.623C738.112 721.079 738.209 720.768 738.364 720.691C738.52 720.613 738.656 720.613 738.772 720.691C738.928 720.73 739.647 720.807 740.929 720.924C741.279 721.351 741.57 721.604 741.803 721.682C742.736 722.614 743.357 723.08 743.668 723.08C743.979 723.119 744.115 723.411 744.076 723.955C744.076 724.46 743.901 724.926 743.552 725.354C743.008 726.558 742.289 727.491 741.395 728.151C740.968 728.307 740.637 728.384 740.404 728.384C740.171 728.384 739.53 728.307 738.481 728.151C737.471 727.996 736.888 727.685 736.732 727.219V725.878C736.732 725.14 736.81 724.712 736.965 724.596C737.16 724.479 737.257 724.168 737.257 723.663L737.432 722.439C737.704 722.245 737.917 721.973 738.073 721.623ZM747.049 694.287C747.243 693.627 747.34 693.258 747.34 693.18C747.379 693.063 747.437 692.927 747.515 692.772C747.826 692.15 747.981 691.723 747.981 691.49V690.674C747.981 690.402 747.962 690.246 747.923 690.207C747.884 690.168 747.709 690.149 747.399 690.149C746.816 690.266 746.019 690.557 745.009 691.023C744.037 691.451 743.338 691.859 742.911 692.247C742.522 692.597 741.997 693.316 741.337 694.404C740.676 695.453 740.307 696.152 740.229 696.502C740.191 696.852 740.093 697.124 739.938 697.318C739.821 697.512 739.685 697.979 739.53 698.717C739.413 699.416 739.355 699.883 739.355 700.116C739.355 700.31 739.452 700.407 739.647 700.407C740.074 700.485 739.938 700.64 739.239 700.874C739.122 700.951 738.908 700.99 738.597 700.99C738.287 700.99 738.092 700.951 738.015 700.874C737.276 700.874 736.849 700.776 736.732 700.582C736.305 700.582 735.839 700.427 735.333 700.116C734.828 699.766 734.498 699.378 734.343 698.95C733.799 697.357 733.973 695.861 734.867 694.462C735.372 692.986 735.916 692.034 736.499 691.606C737.16 690.207 737.548 689.45 737.665 689.333C737.82 689.178 737.956 689.08 738.073 689.042C738.228 688.653 738.306 688.42 738.306 688.342C738.306 688.226 738.481 688.07 738.831 687.876C739.18 687.643 739.452 687.448 739.647 687.293C740.035 686.982 740.229 686.749 740.229 686.594C740.501 686.594 740.754 686.535 740.987 686.419C741.531 686.302 741.881 686.108 742.036 685.836C742.269 685.836 742.755 685.719 743.493 685.486C744.232 685.253 745.223 685.195 746.466 685.311C746.66 685.389 747.029 685.583 747.573 685.894C748.117 686.166 748.428 686.341 748.506 686.419C748.584 686.458 748.681 686.496 748.797 686.535C749.108 686.652 749.38 686.866 749.613 687.176C749.963 687.254 750.293 687.39 750.604 687.584C750.993 687.934 751.479 688.206 752.061 688.4L753.052 688.983C753.519 689.061 753.907 689.119 754.218 689.158C754.373 689.158 754.568 689.43 754.801 689.974C754.879 691.995 753.985 694.715 752.12 698.134C752.003 698.406 751.789 698.834 751.479 699.416C751.207 699.96 751.051 700.349 751.012 700.582C750.624 701.437 749.575 703.652 747.865 707.227C746.155 710.802 745.164 712.842 744.892 713.347C744.853 713.347 744.756 713.463 744.601 713.696C744.445 713.891 744.329 714.007 744.251 714.046L743.96 714.687C743.96 714.882 743.746 715.037 743.319 715.154C742.93 715.231 742.619 715.251 742.386 715.212H740.521C739.588 715.018 739.044 714.843 738.889 714.687C738.733 714.532 738.656 714.046 738.656 713.23C738.656 710.666 739.18 708.548 740.229 706.877C740.618 705.906 740.968 705.148 741.279 704.604C741.628 704.021 741.842 703.574 741.92 703.263C741.997 702.952 742.308 702.525 742.852 701.981C743.085 701.359 743.319 700.893 743.552 700.582C743.746 700.504 744.018 700.135 744.368 699.475C744.756 698.814 744.951 698.387 744.951 698.192C744.951 697.959 745.125 697.726 745.475 697.493C745.475 697.338 745.592 697.085 745.825 696.735C745.825 696.191 745.941 695.803 746.175 695.57C746.408 695.298 746.524 694.987 746.524 694.637C746.524 694.404 746.699 694.287 747.049 694.287ZM788.045 694.754C787.967 695.453 787.929 696.172 787.929 696.91C787.929 698.309 787.851 699.572 787.695 700.699C787.54 701.826 787.443 702.603 787.404 703.03C787.365 703.419 787.307 703.807 787.229 704.196V704.604C787.229 705.303 787.074 706.003 786.763 706.702L786.588 709.325L786.355 714.862V717.776C786.355 719.253 786.277 720.05 786.122 720.166L786.18 721.682V722.323L786.122 723.022C786.122 723.178 786.083 723.255 786.005 723.255C786.083 723.722 785.889 724.227 785.422 724.771C784.995 725.276 784.451 725.606 783.79 725.762L782.741 725.936C782.586 725.936 782.372 725.956 782.1 725.995C781.828 725.995 781.595 725.956 781.401 725.878C781.206 725.8 781.012 725.703 780.818 725.587C780.429 725.354 780.157 724.907 780.002 724.246C779.885 724.052 779.652 722.867 779.302 720.691C779.302 720.224 779.263 719.642 779.186 718.942L779.361 717.543V716.436C779.361 715.736 779.438 715.251 779.594 714.979C779.438 714.746 779.535 714.24 779.885 713.463C779.613 713.114 779.633 712.336 779.943 711.132C779.788 710.627 779.788 710.296 779.943 710.141C780.021 709.908 780.06 709.364 780.06 708.509L780.118 707.926C780.118 706.799 780.235 705.77 780.468 704.837C780.39 704.72 780.39 704.41 780.468 703.904C780.546 703.399 780.604 702.797 780.643 702.098V701.69C780.682 701.107 780.701 700.485 780.701 699.824L780.759 699.3C780.759 699.067 780.798 698.6 780.876 697.901C780.993 697.202 781.09 696.463 781.167 695.686H781.051C776.932 696.813 774.406 697.376 773.474 697.376L772.483 697.435C771.9 697.435 771.298 697.338 770.676 697.143C770.365 696.988 770.132 696.58 769.977 695.919C769.977 694.637 770.249 693.704 770.793 693.122C771.375 692.539 772.444 691.995 773.998 691.49C774.387 691.451 776.796 690.635 781.226 689.042L783.732 688.459C784.198 688.303 784.937 688.226 785.947 688.226C786.957 688.226 787.793 688.109 788.453 687.876C789.153 687.604 789.91 687.41 790.726 687.293C791.542 687.138 792.397 686.982 793.291 686.827C793.718 686.671 794.495 686.71 795.622 686.943C796.05 686.943 796.73 687.39 797.662 688.284L798.012 689.1C798.012 689.333 798.07 689.508 798.187 689.624C798.342 690.674 798.109 691.354 797.487 691.664C797.254 691.781 796.846 691.936 796.263 692.131C795.486 692.131 793.543 692.519 790.435 693.296C790.279 693.296 789.502 693.413 788.103 693.646L788.045 694.404V694.754ZM796.263 709.092C796.263 708.742 796.224 708.334 796.146 707.868V707.46C796.185 707.188 796.166 706.896 796.088 706.586C796.088 706.197 796.127 705.847 796.205 705.536C796.205 704.759 796.302 704.254 796.496 704.021C796.496 703.827 796.768 703.38 797.312 702.68C797.468 702.525 797.759 702.272 798.186 701.923C798.808 701.728 799.236 701.612 799.469 701.573C799.624 701.418 800.149 701.476 801.042 701.748C801.431 701.787 802.033 701.923 802.849 702.156C803.121 702.234 803.471 702.544 803.898 703.088C803.821 703.244 803.685 703.827 803.49 704.837C803.335 705.808 803.277 706.605 803.316 707.227C803.549 707.032 803.957 706.624 804.54 706.003C805.122 705.381 805.433 705.051 805.472 705.012C806.482 704.546 807.473 704.215 808.445 704.021C809.844 703.904 810.757 704.002 811.184 704.312C811.534 704.429 811.806 704.604 812 704.837C812.35 705.148 812.641 705.692 812.874 706.469C813.108 707.207 813.088 707.674 812.816 707.868C812.583 708.062 811.806 708.218 810.485 708.334C810.407 708.334 810.135 708.49 809.669 708.8L806.638 711.19C806.016 711.501 805.589 711.773 805.356 712.006L804.248 714.046C804.209 714.124 804.17 714.629 804.132 715.562C804.093 716.494 804.093 717.174 804.132 717.602C804.17 717.99 804.17 719.292 804.132 721.507V724.013C804.132 725.373 804.112 726.15 804.073 726.344C804.034 726.578 803.879 726.966 803.607 727.51C803.49 727.704 803.121 727.802 802.5 727.802C800.984 728.928 800.013 728.87 799.585 727.627L798.828 727.16C798.517 727.005 798.322 726.811 798.245 726.578C797.934 726.15 797.778 725.898 797.778 725.82L797.545 725.004L797.196 724.304C797.079 724.266 796.982 723.527 796.904 722.09C796.826 720.613 796.788 719.719 796.788 719.408C796.788 719.059 796.749 718.69 796.671 718.301C796.943 718.029 797.06 717.563 797.021 716.902C797.021 716.242 796.982 715.736 796.904 715.387C796.826 714.998 796.826 714.765 796.904 714.687C796.982 714.571 796.962 714.027 796.846 713.055C796.729 712.9 796.71 712.608 796.788 712.181L796.263 709.092ZM815.546 711.015C815.469 710.277 815.449 709.791 815.488 709.558V708.043L815.78 705.595C815.78 705.517 816.09 704.429 816.712 702.331C816.945 701.864 817.237 701.379 817.586 700.874C817.82 700.446 818.325 700.155 819.102 699.999C819.296 699.805 820.248 699.922 821.958 700.349C822.191 700.582 822.346 701.864 822.424 704.196L822.366 706.702V709.966L822.074 712.356L821.9 716.494C822.016 716.688 822.036 716.98 821.958 717.368C821.919 717.757 821.958 718.456 822.074 719.467C822.346 721.332 822.677 722.42 823.065 722.731C823.143 722.808 823.473 722.77 824.056 722.614C824.056 722.614 824.464 721.818 825.28 720.224L825.921 718.243V718.184L826.154 717.66C826.271 716.922 826.485 716.3 826.796 715.795C826.718 715.367 827.029 714.202 827.728 712.298L827.67 711.773L827.845 710.84L827.67 708.8C827.437 707.557 827.32 706.644 827.32 706.061L827.087 703.904C827.087 703.283 827.204 702.292 827.437 700.932C827.592 700.699 827.786 700.543 828.02 700.466C828.253 700.349 828.874 700.155 829.885 699.883C830.118 699.922 830.409 699.98 830.759 700.058C831.148 700.096 831.536 700.232 831.925 700.466C832.391 700.543 832.682 700.679 832.799 700.874C832.916 701.146 833.032 702.195 833.149 704.021C833.265 705.07 833.324 706.003 833.324 706.819C833.44 708.14 833.498 709.344 833.498 710.432L833.557 711.54V712.356C833.479 713.094 833.46 713.891 833.498 714.746C833.576 715.562 833.615 716.008 833.615 716.086C833.732 718.029 833.79 719.35 833.79 720.05C833.868 723.003 833.887 724.674 833.848 725.062C833.848 725.412 833.887 725.664 833.965 725.82L833.848 727.627C833.848 729.064 833.751 730.366 833.557 731.532C833.557 731.998 833.518 732.426 833.44 732.814C833.285 733.669 833.149 734.524 833.032 735.379L832.391 736.428C832.119 736.661 831.983 736.797 831.983 736.836C831.983 736.914 831.964 736.972 831.925 737.011C831.808 737.244 831.167 737.749 830.001 738.526C829.69 738.643 829.38 738.798 829.069 738.992C828.797 739.226 828.292 739.42 827.553 739.575C826.271 739.731 824.93 739.556 823.532 739.051L822.133 738.584C819.957 737.496 818.791 736.836 818.636 736.603C818.519 736.408 818.461 736.234 818.461 736.078C817.878 734.602 817.936 733.514 818.636 732.814C819.335 732.115 820.423 732.231 821.9 733.164C821.938 733.242 822.58 733.65 823.823 734.388C824.717 734.738 825.358 734.951 825.746 735.029L826.562 734.854L827.029 734.271L827.437 733.572C827.437 733.494 827.553 733.28 827.786 732.931C827.786 732.698 827.922 732.095 828.194 731.124C828.156 730.93 828.175 730.541 828.253 729.958C828.33 729.375 828.369 728.967 828.369 728.734V727.219C828.447 727.024 828.447 726.422 828.369 725.412C828.408 725.412 828.428 725.237 828.428 724.887C828.428 724.46 828.389 723.974 828.311 723.43C828.117 723.974 827.825 724.635 827.437 725.412L826.446 726.344C826.29 726.655 826.096 726.85 825.863 726.927C825.63 727.005 825.066 727.005 824.173 726.927C824.173 726.966 823.998 727.044 823.648 727.16C822.793 727.199 822.152 727.16 821.725 727.044C821.297 727.044 820.967 727.005 820.734 726.927C820.19 726.927 819.685 726.714 819.218 726.286C818.053 726.053 817.14 724.829 816.479 722.614C816.168 720.166 816.013 718.709 816.013 718.243C816.052 717.738 815.993 716.96 815.838 715.911V714.629C815.76 714.512 815.682 713.968 815.605 712.997C815.527 711.987 815.508 711.326 815.546 711.015ZM855.639 689.741C858.242 689.741 860.069 690.266 861.118 691.315C861.118 691.975 860.671 693.316 859.777 695.336C859.622 695.997 859.369 696.522 859.019 696.91L858.262 697.668C858.067 697.784 857.873 697.843 857.679 697.843C856.28 698.192 855.192 697.92 854.415 697.027C854.259 696.794 854.065 696.619 853.832 696.502C853.638 696.386 853.482 696.036 853.366 695.453C853.016 694.948 852.841 694.559 852.841 694.287C852.763 691.878 853.638 690.363 855.464 689.741H855.639ZM855.173 703.496C855.561 703.302 856.474 703.496 857.912 704.079C858.067 704.235 858.301 704.39 858.611 704.546L859.544 705.303C859.699 705.459 859.777 705.711 859.777 706.061V711.19C859.777 711.967 859.738 712.667 859.661 713.288V713.638C859.544 715.231 859.641 718.826 859.952 724.421C860.069 725.509 859.816 726.17 859.194 726.403C858.534 726.403 858.106 726.306 857.912 726.111C857.757 726.034 857.621 725.995 857.504 725.995H857.096L856.746 726.111C856.63 726.111 856.416 726.034 856.105 725.878C855.794 725.684 855.581 725.49 855.464 725.295C855.386 725.101 855.231 724.984 854.998 724.946C854.57 724.79 854.337 724.499 854.298 724.071C853.754 723.022 853.463 722.4 853.424 722.206C853.424 722.012 853.366 721.798 853.249 721.565L852.958 716.494C852.958 715.911 852.997 715.464 853.074 715.154V713.755C853.113 713.327 853.152 712.55 853.191 711.423C853.23 710.258 853.288 709.325 853.366 708.626C853.288 707.615 853.249 706.935 853.249 706.586C853.249 706.236 853.269 705.983 853.307 705.828C852.88 705.4 852.899 704.818 853.366 704.079C853.871 703.691 854.357 703.496 854.823 703.496H855.173ZM863.773 703.438C863.657 702.855 863.579 702.525 863.54 702.447C863.346 702.059 863.249 701.709 863.249 701.398C863.249 701.087 863.229 700.932 863.19 700.932C863.268 700.038 863.618 699.378 864.24 698.95C864.861 698.484 865.736 698.367 866.862 698.6L868.728 699.3L871.409 699.941L872.749 696.094C873.099 695.472 873.274 695.045 873.274 694.812C873.313 694.579 873.39 694.326 873.507 694.054C873.662 693.51 873.818 693.102 873.973 692.83L874.206 691.898C874.478 691.392 875.022 691.062 875.838 690.907C876.305 690.712 876.713 690.712 877.062 690.907C878.112 690.946 878.908 691.334 879.452 692.072C879.452 692.267 879.394 692.578 879.277 693.005C879.161 693.432 879.064 693.996 878.986 694.695L877.529 700.524H877.995L879.452 700.466C879.646 700.504 879.86 700.524 880.093 700.524C880.948 700.33 881.609 700.213 882.075 700.174C882.541 700.096 882.852 700.038 883.008 699.999C883.124 700.038 883.454 700.038 883.998 699.999C884.542 699.96 885.106 700.135 885.689 700.524C886.272 700.874 886.563 701.32 886.563 701.864C886.563 702.37 886.194 702.816 885.456 703.205L884.931 703.904C884.309 704.138 883.765 704.41 883.299 704.72C882.755 705.031 880.521 705.556 876.596 706.294L876.188 709.267C876.266 709.461 876.305 709.616 876.305 709.733C876.033 711.404 875.8 713.483 875.605 715.97C875.644 716.863 875.664 717.466 875.664 717.776V719.35C875.625 719.428 875.605 719.68 875.605 720.108C875.605 721.079 875.722 722.226 875.955 723.547C876.188 724.829 876.324 725.606 876.363 725.878C876.402 726.15 876.421 726.461 876.421 726.811C876.382 727.471 876.11 727.899 875.605 728.093C874.362 728.093 873.313 727.879 872.458 727.452C871.758 727.335 871.448 727.18 871.525 726.986C871.253 726.791 870.942 726.422 870.593 725.878C870.593 725.567 870.573 725.392 870.534 725.354C870.262 725.237 870.126 724.926 870.126 724.421C870.088 724.382 870.049 724.246 870.01 724.013L869.602 722.556C869.252 722.09 869.136 721.468 869.252 720.691C869.252 720.535 869.194 720.341 869.077 720.108V719.7C869.077 719.389 869.097 719.156 869.136 719C868.941 717.912 868.961 716.63 869.194 715.154C869.427 713.638 869.582 712.55 869.66 711.89C869.582 711.695 869.621 711.443 869.777 711.132C869.777 710.782 869.854 710.238 870.01 709.5L870.534 706.178C870.301 706.1 870.068 706.061 869.835 706.061C867.776 705.595 866.707 705.303 866.629 705.187L865.93 704.779C865.658 704.779 865.269 704.643 864.764 704.371C864.259 704.06 863.929 703.749 863.773 703.438Z" fill="#063233"/>
<path d="M636.286 316.929L652.072 325.429H666.643L656.929 323L648.429 319.357L642.358 316.929L637.501 314.5L631.429 309.643L624.143 306L616.858 301.143L609.572 293.857L601.072 286.571L596.215 280.5L591.358 274.429L584.072 265.929L579.215 259.857L575.572 250.143C573.548 247.31 569.501 241.4 569.501 240.429C569.501 239.457 567.882 235.976 567.072 234.357L562.215 221L561.001 217.357L559.786 205.214L558.572 202.786V168.786L561.001 159.071V155.429L562.215 146.929L563.429 140.857L564.643 136L565.858 131.143L568.286 127.5L569.501 121.429L574.358 112.929L576.786 109.286L581.643 102L586.501 93.5L593.786 83.7857L598.643 78.9286L604.715 70.4286L613.215 64.3571L624.143 57.0714L637.501 47.3571L650.858 42.5L661.786 38.8571L676.358 34L683.643 32.7857L727.358 34L735.858 36.4286L748.001 38.8571L756.501 42.5L771.072 49.7857L785.643 57.0714L797.786 68L809.929 78.9286L819.643 92.2857L828.143 102L834.215 112.929L840.286 128.714L843.929 138.429L847.572 150.571V168.786V201.571L843.929 218.571L834.215 236.786L828.143 248.929L820.858 259.857L811.143 274.429L800.215 284.143L789.286 292.643L780.786 299.929L774.715 302.357L773.501 304.786H768.643L767.429 303.571L765.001 301.143L763.786 299.929H760.143L758.929 297.5L757.715 295.071H754.072H749.215L745.572 297.5L744.358 299.929H740.715L738.286 302.357L735.858 304.786L733.429 307.214H731.001V309.643H728.572V310.857L726.143 312.071V314.5H723.715V316.929H721.286V319.357H718.858V321.786H716.429V324.214H714.001V333.929H716.429V336.357H718.858L721.286 338.786H738.286V336.357H748.001H755.286L758.929 335.143L762.572 333.929V331.5H767.429V329.071H769.858V326.643V324.214H772.286V316.929V313.286H773.501L780.786 309.643L791.715 306L812.358 292.643L831.786 272L843.929 251.357L859.715 223.429L869.429 191.857V167.571V143.286L864.572 119L853.643 92.2857L843.929 74.0714L831.786 57.0714L812.358 37.6429L791.715 21.8571L771.072 12.1429L741.929 3.64286L721.286 0H687.286L664.215 3.64286L641.143 12.1429L621.715 21.8571L609.572 26.7143L593.786 41.2857L579.215 57.0714L567.072 74.0714L547.643 104.429L542.786 128.714L536.715 172.429L547.643 212.5L562.215 251.357L574.358 272L597.429 292.643L618.072 306L636.286 316.929Z" fill="#063233"/>
</svg>
