<svg width="1179" height="693" viewBox="0 0 1179 693" fill="none" xmlns="http://www.w3.org/2000/svg">
<path d="M166.384 427.267C159.912 425.675 148.505 423.925 132.165 422.015L130.891 415.807C141.926 416.02 152.272 416.126 161.928 416.126C171.477 416.338 184.688 416.656 201.559 417.081C254.188 416.232 282.042 415.383 285.119 414.534C285.331 414.322 285.755 412.147 286.392 408.009C286.816 403.87 287.135 400.952 287.347 399.255L295.146 397.822C294.085 405.038 292.812 418.089 291.326 436.976C289.522 455.863 288.408 465.519 287.984 465.943C288.196 465.731 288.408 465.519 288.62 465.307L281.776 462.76V440C280.079 436.074 270.529 432.679 253.127 429.814C235.726 427.161 220.605 425.835 207.766 425.835C207.554 432.838 207.342 441.326 207.13 451.3C206.705 461.487 206.387 471.726 206.175 482.019C205.962 492.417 205.856 504.885 205.856 519.422C243.206 518.361 265.701 516.504 273.341 513.851C275.039 508.864 276.1 504.195 276.524 499.845L283.845 499.208C283.103 502.073 281.458 512.737 278.911 531.2C276.047 549.662 274.614 559.318 274.614 560.167L268.407 557.62C268.619 557.62 268.831 556.984 269.043 555.71C269.043 554.119 269.15 552.05 269.362 549.503C269.362 546.85 269.468 543.986 269.68 540.908C269.68 538.15 269.68 536.558 269.68 536.134C259.918 531.146 238.644 528.653 205.856 528.653C205.856 533.216 205.644 537.195 205.22 540.59C205.432 550.67 205.962 565.791 206.811 585.951C207.448 606.43 207.766 623.142 207.766 636.087C248.83 635.45 274.932 631.577 286.074 624.468C287.559 620.542 289.947 611.099 293.236 596.137L300.717 594.068C294.881 625.582 291.273 650.571 289.894 669.033L283.05 667.76V648.183C281.14 647.547 272.386 646.91 256.788 646.273C240.872 645.849 218.006 645.424 188.189 645C158.055 645.849 138.955 646.486 130.891 646.91L132.801 639.748C147.444 638.687 158.638 637.254 166.384 635.45C167.764 576.773 168.453 537.248 168.453 516.875C168.453 483.876 167.764 454.006 166.384 427.267ZM335.891 646.273L337.165 639.748C338.544 639.535 342.894 638.899 350.216 637.838C357.643 636.671 362.418 635.663 364.54 634.814C367.405 623.778 370.376 554.808 373.453 427.904C371.437 426.843 365.761 425.729 356.423 424.561C350.163 423.925 345.388 423.606 342.099 423.606C340.401 423.606 338.968 423.712 337.801 423.925L335.891 417.081C351.065 416.232 365.867 415.595 380.297 415.171C394.41 414.959 404.49 414.746 410.538 414.534C419.663 427.161 429.956 440.743 441.415 455.28C452.981 469.816 469.64 489.818 491.392 515.283C512.932 540.855 529.644 560.591 541.528 574.491C553.518 588.71 559.725 596.137 560.15 596.774C560.15 594.97 559.938 577.356 559.513 543.932C559.089 510.721 558.558 485.839 557.922 469.286C557.285 452.945 555.64 438.727 552.988 426.63C549.274 426.1 544.181 425.198 537.708 423.925C531.129 422.864 525.24 422.227 520.041 422.015L518.131 415.807C525.983 416.02 533.145 416.126 539.618 416.126C546.197 416.338 554.473 416.656 564.447 417.081C575.27 416.656 583.494 416.338 589.117 416.126C594.847 416.126 601.054 416.02 607.739 415.807L606.466 422.015C604.025 422.439 599.887 423.341 594.051 424.72C588.215 425.994 584.077 426.843 581.637 427.267C580.363 430.45 579.196 440.212 578.135 456.553C576.756 473.106 575.642 494.221 574.793 519.899C573.944 545.471 573.095 571.733 572.246 598.684C571.397 625.848 570.761 646.804 570.336 661.553C559.195 648.926 546.144 634.071 531.182 616.988C516.221 599.798 501.101 582.29 485.821 564.464C470.436 546.85 452.185 525.576 431.07 500.641C409.954 475.599 394.516 457.083 384.754 445.093C384.966 457.508 385.284 473.371 385.709 492.682C386.027 512.312 386.611 533.958 387.46 557.62C388.308 581.495 389.051 599.108 389.688 610.462C390.325 621.709 391.067 629.827 391.916 634.814C393.932 635.663 399.821 636.671 409.583 637.838C419.345 639.111 425.34 639.748 427.568 639.748L428.842 646.273C420.565 645.849 412.501 645.531 404.649 645.318C396.903 645.318 388.468 645.212 379.342 645C371.915 645.212 365.018 645.318 358.651 645.318C352.179 645.531 344.592 645.849 335.891 646.273ZM619.87 414.312H699.362C699.81 414.401 700.034 414.625 700.034 414.983V422.1C700.034 422.547 697.393 423.219 692.111 424.114C684.234 427.068 680.295 430.246 680.295 433.647C679.668 433.916 679.221 436.333 678.952 440.898V441.167C678.952 449.85 683.339 467.172 692.111 493.132C696.14 506.65 708.001 547.38 727.695 615.325C770.753 508.44 792.282 454.595 792.282 453.789C794.252 447.523 795.236 442.375 795.236 438.347V435.393C795.236 425.815 791.342 421.518 783.554 422.502C775.856 423.487 768.649 426.799 761.936 432.439C769.366 412.208 793.759 406.165 835.117 414.312C835.564 414.401 835.788 414.625 835.788 414.983V422.1C835.788 422.458 833.371 423.353 828.537 424.785C821.823 427.65 815.691 435.125 810.141 447.209C807.097 454.192 780.6 520.122 730.649 645L704.599 654.937C708.18 647.059 705.987 634.213 698.02 616.399C664.54 512.11 645.607 453.923 641.22 441.838C637.102 432.976 633.745 427.426 631.149 425.188C629.717 424.472 627.076 423.577 623.227 422.502L619.199 414.983C619.288 414.535 619.512 414.312 619.87 414.312ZM849.216 414.714H924.814C925.262 414.804 925.485 415.028 925.485 415.386V422.637C925.485 423.084 923.158 423.666 918.503 424.382C911.879 426.71 908.566 430.559 908.566 435.93V436.87C908.566 443.584 913.579 455.221 923.605 471.782L958.518 533.281C992.355 479.66 1009.27 450.656 1009.27 446.27C1017.15 423.8 1009.5 415.341 986.313 420.891C996.518 406.837 1019.84 404.778 1056.27 414.714C1056.72 414.804 1056.94 415.028 1056.94 415.386V422.637L1047.68 427.605C1043.02 430.201 1037.92 435.169 1032.37 442.51C1023.33 455.579 1002.74 488.119 970.603 540.129C967.559 544.516 966.037 547.157 966.037 548.052V606.865C966.037 619.845 969.125 628.126 975.302 631.707C977.272 633.139 982.24 634.795 990.207 636.675V644.329C990.207 644.776 989.983 645 989.536 645H908.298C907.85 645 907.626 644.776 907.626 644.329V637.078C907.626 636.72 911.162 635.69 918.234 633.989C923.068 631.93 926.157 629.424 927.5 626.47C930.364 622.531 931.796 615.414 931.796 605.12V548.052C897.511 487.896 876.161 451.193 867.746 437.944C861.748 430.246 856.556 425.815 852.17 424.651C849.753 423.577 848.544 422.905 848.544 422.637V415.386C848.634 414.938 848.858 414.714 849.216 414.714Z" fill="white"/>
<path d="M517.796 332.329L536.369 339.304L549.629 341.242L539.442 338L530.154 334.5L524.61 331.124L519.517 327.795L512.325 322.702L504.687 318.012L497.047 311.643L489.784 308.137L480.871 300.497L475.778 294.13L470.685 287.764L463.045 278.851L457.952 272.484L454.132 262.298C452.01 259.327 447.765 253.13 447.765 252.112C447.765 251.093 446.068 247.443 445.219 245.745L440.126 231.739L438.852 227.919L437.579 215.186L436.306 212.64V176.988L438.852 166.801V162.981L440.126 154.068L441.399 147.702L442.672 142.609L443.946 137.516L445.219 132.5L447.765 127.329L452.859 118.416L455.405 114.596L460.498 106.957L465.591 98.0435L473.231 87.8571L478.324 82.764L484.691 73.8509L493.604 67.4845L505.064 59.8447L519.07 49.6584L533.076 44.5652L544.536 40.7453L559.815 35.6522L567.455 34.3789L613.293 35.6522L622.206 38.1988L634.939 40.7453L643.852 44.5652L659.132 52.205L674.411 59.8447L687.144 71.3044L699.877 82.764L710.063 96.7702L718.976 106.957L725.343 118.416L731.709 134.969L735.529 145.155L739.349 157.888V176.988L738.369 211L734.369 229L725.343 248.292L718.976 261.025L711.337 272.484L700.869 286L690.869 298.5L679.869 308L669.318 314.503L665.869 317.05L661.678 319.596H656.585L655.312 318.323L652.765 315.776L651.492 314.503L648.369 313.5L645.869 312L644.369 309.41L641.369 308L636.869 308.5L633.369 309.41L630.573 311.043L627.3 314.503L624.753 317.05L622.206 319.596L619.66 322.143L618.369 323.5L617.113 324.689L615.869 326L614.369 327.5L612.869 329L612.02 329.783L610.869 331L609.473 332.329L607.869 334L606.927 334.876L605.869 336L604.38 337.422L602.869 339L601.834 339.969L601.369 343.5L602.369 347L602.869 348.5L604.38 350.155V352.702L607.869 354L619.869 353.5L625.369 353L635.659 351.737L643.869 349.5L647.869 348.5L649.369 348L652.369 347L653.869 346L655.312 345.062L655.869 344L657.859 342.516V341L659.369 336.5L660.405 332.329V328.509H661.678L669.318 324.689L680.778 320.87L702.424 306.863L722.796 285.217L735.529 263.571L752.082 234.286L758.369 220.5L762.268 201.18V175.714V150.248L757.175 124.783L745.715 96.7702L735.529 77.6708L722.796 59.8447L702.424 39.472L680.778 22.9193L659.132 12.7329L628.573 3.81988L606.927 0H571.275L547.082 3.81988L522.89 12.7329L502.517 22.9193L489.784 28.0124L473.231 43.2919L457.952 59.8447L445.219 77.6708L424.846 109.503L419.753 134.969L417 176.674L424.846 222.826L440.126 263.571L452.859 285.217L477.051 306.863L498.697 320.87L517.796 332.329Z" fill="white"/>
</svg>
