<svg width="1478" height="820" viewBox="0 0 1478 820" fill="none" xmlns="http://www.w3.org/2000/svg">
<path d="M317.82 410.317H472.978V474.206H446.901V436.394H370.626V519.515H446.901V545.592H370.626V628.712H446.901V590.9H472.978V654.789H317.82V628.712H340.637V436.394H317.82V410.317ZM577.854 628.712H600.672V654.789H525.048V628.712H547.866V436.394H525.048V410.317H592.849L688.03 617.955V436.394H665.212V410.317H740.836V436.394H718.018V654.789H673.035L577.854 447.477V628.712ZM770.017 436.394V410.317H839.121V436.394H816.63L875.303 625.126L934.302 436.394H911.811V410.317H980.915V436.394H964.291L896.165 654.789H854.767L786.641 436.394H770.017ZM1130.7 654.789H1042.04V628.712H1071.38V578.514L1010.1 436.394H993.798V410.317H1062.9V436.394H1038.78L1086.05 546.243L1133.31 436.394H1109.51V410.317H1178.62V436.394H1161.99L1101.37 577.536V628.712H1130.7V654.789Z" fill="white"/>
<path d="M562.46 744.316C562.419 743.419 562.216 742.747 561.849 742.299C561.482 741.81 560.81 741.525 559.832 741.443C559.547 741.647 559.16 742.339 558.671 743.521C558.223 744.662 557.937 745.884 557.815 747.188C557.408 749.144 557.204 751.1 557.204 753.055C557.245 755.052 557.571 756.519 558.182 757.456C558.263 757.619 558.345 757.68 558.426 757.639C558.63 757.639 558.956 757.232 559.404 756.417C561.564 752.505 562.582 748.472 562.46 744.316ZM564.355 755.989L563.438 758.373C563.438 758.454 562.847 759.33 561.665 761.001C561.299 761.775 560.606 762.203 559.587 762.284C558.61 762.366 557.652 762.264 556.715 761.979C555.452 761.53 554.494 761.001 553.842 760.39C553.19 759.778 552.539 758.76 551.887 757.334C551.275 755.867 550.949 754.665 550.909 753.728C550.705 752.383 550.603 751.528 550.603 751.161V749.694C550.603 748.227 550.664 747.371 550.786 747.127C550.827 746.964 550.929 746.536 551.092 745.844C551.296 744.132 551.785 742.502 552.559 740.954C554.066 737.98 555.615 736.452 557.204 736.37H557.509C557.591 736.411 557.713 736.431 557.876 736.431H558.671C560.097 736.554 560.973 736.676 561.299 736.798C561.91 736.961 562.44 737.043 562.888 737.043L564.477 737.348C564.966 737.307 565.597 737.409 566.372 737.654C567.186 737.898 567.614 738.082 567.655 738.204C567.737 738.326 567.859 738.774 568.022 739.548C568.185 740.323 568.287 740.893 568.327 741.26C568.409 741.586 568.47 741.932 568.511 742.299C568.837 745.273 569.366 748.044 570.1 750.611C570.141 750.733 570.181 750.916 570.222 751.161C570.263 751.405 570.405 751.894 570.65 752.628C570.894 753.32 571.078 753.911 571.2 754.4C571.322 754.889 571.546 755.541 571.872 756.356C572.117 756.967 572.483 757.68 572.972 758.495C573.869 759.758 573.4 760.736 571.567 761.429C571.322 761.51 570.894 761.551 570.283 761.551C570.161 761.551 569.774 761.347 569.122 760.94C568.714 760.94 568.327 760.716 567.961 760.267L567.472 760.145C567.186 759.86 566.942 759.717 566.738 759.717C566.657 759.636 565.923 757.986 564.538 754.767C564.416 755.215 564.355 755.622 564.355 755.989ZM591.954 729.158L592.382 725.552L592.443 723.658C592.443 723.128 592.545 722.721 592.749 722.435L593.36 721.58C594.46 720.724 595.173 720.235 595.499 720.113C595.825 719.991 596.294 720.011 596.905 720.174C597.557 720.296 597.944 720.418 598.066 720.541L598.738 721.091C599.105 721.294 599.288 721.62 599.288 722.069C599.492 722.313 599.553 722.496 599.472 722.619C599.227 722.904 598.82 725.308 598.249 729.831L597.76 738.143L597.455 739.793C597.455 740.323 597.475 740.628 597.516 740.71V741.81C597.434 742.625 597.353 743.134 597.272 743.338C597.272 743.541 597.231 743.766 597.149 744.01C597.231 744.091 597.272 744.417 597.272 744.988C597.272 745.518 597.21 745.844 597.088 745.966C597.007 746.618 596.966 747.249 596.966 747.86C596.966 748.431 597.007 749.042 597.088 749.694C597.21 750.305 597.251 750.916 597.21 751.527L597.455 753.85V754.767C597.536 755.5 597.577 756.091 597.577 756.539L597.883 759.717L598.127 761.368C598.249 762.06 598.188 762.732 597.944 763.384C597.74 764.036 597.414 764.444 596.966 764.607C595.703 765.136 594.317 764.79 592.81 763.568H592.321C592.036 763.242 591.812 762.794 591.649 762.223C591.323 762.06 591.18 761.775 591.221 761.368C591.262 760.96 591.18 760.593 590.976 760.267C590.773 759.941 590.671 759.656 590.671 759.412C590.671 758.882 590.63 758.413 590.549 758.006L590.61 757.517C590.487 757.395 590.426 757.211 590.426 756.967L590.304 755.867V755.378C590.304 755.052 590.284 754.828 590.243 754.706C590.243 754.583 590.304 754.38 590.426 754.094C590.304 753.931 590.284 753.341 590.365 752.322C590.61 749.185 590.732 747.025 590.732 745.844L590.793 744.377V742.604C590.834 741.626 590.854 740.384 590.854 738.876C590.895 737.368 590.976 736.554 591.099 736.431L591.037 735.881C591.037 734.903 591.18 733.579 591.465 731.909C591.791 730.197 591.954 729.281 591.954 729.158ZM608.043 722.313C608.083 722.272 608.47 722.211 609.204 722.13C610.385 721.926 611.2 722.007 611.649 722.374C612.138 722.7 612.484 723.067 612.688 723.474C612.769 724.778 612.586 726.469 612.138 728.547C611.689 729.892 611.302 730.89 610.976 731.542L610.365 732.459C610.243 732.785 609.978 733.131 609.571 733.498C609.163 733.864 608.858 734.048 608.654 734.048C608.491 734.007 608.185 733.864 607.737 733.62C607.33 733.335 607.085 733.131 607.004 733.009C606.963 732.887 606.922 732.744 606.881 732.581L606.576 731.359L605.353 729.831C605.109 729.342 604.987 728.853 604.987 728.364C604.864 727.223 605.007 726.347 605.415 725.736C605.415 725.654 605.476 725.45 605.598 725.125C605.802 724.228 606.617 723.291 608.043 722.313ZM606.209 749.755C606.209 749.388 606.27 748.899 606.392 748.288C606.555 747.636 606.596 747.188 606.515 746.944C606.474 746.699 606.474 746.007 606.515 744.866C606.637 744.377 606.657 743.827 606.576 743.215C606.291 742.319 606.209 741.667 606.331 741.26C606.454 740.852 606.718 740.404 607.126 739.915C607.533 739.385 607.981 739.019 608.47 738.815C608.959 738.611 609.693 738.632 610.671 738.876C610.915 738.998 611.323 739.406 611.893 740.098C612.015 740.221 612.158 740.689 612.321 741.504C612.525 742.319 612.647 743.215 612.688 744.193C612.769 745.13 612.83 746.516 612.871 748.349C612.912 750.142 612.993 752.567 613.115 755.622C613.238 758.638 613.258 760.512 613.177 761.245C613.136 761.979 612.871 762.529 612.382 762.895C611.934 763.303 611.526 763.384 611.16 763.14C610.834 762.936 610.487 762.794 610.121 762.712C609.469 762.712 608.898 762.447 608.409 761.918C608.246 761.877 607.859 761.693 607.248 761.368C606.637 761.001 606.25 760.349 606.087 759.412C605.883 759.004 605.822 757.68 605.903 755.439V753.239L606.209 751.161V749.755ZM622.623 759.595C622.664 759.554 622.582 758.964 622.379 757.823C622.379 757.578 622.338 756.723 622.256 755.256V753.85C622.379 753.28 622.379 752.852 622.256 752.567L622.317 751.772C622.317 751.202 622.338 750.774 622.379 750.488C622.46 750.163 622.44 749.674 622.317 749.022C622.317 747.922 622.317 747.147 622.317 746.699C622.358 746.21 622.317 745.681 622.195 745.11C622.236 744.947 622.256 744.356 622.256 743.338C622.338 743.093 622.399 742.788 622.44 742.421L618.589 742.543C617.367 742.625 616.572 742.319 616.206 741.626C615.88 741.178 616.002 740.547 616.572 739.732C616.735 739.487 617.632 739.263 619.262 739.059L619.934 738.937L622.501 738.204C622.582 737.878 622.603 737.491 622.562 737.043L622.745 735.026C622.745 734.374 622.806 733.62 622.929 732.764C622.929 732.275 622.99 731.705 623.112 731.053C623.112 730.564 623.153 730.014 623.234 729.403C623.234 728.995 623.316 727.671 623.479 725.43C623.642 725.104 623.784 724.676 623.907 724.147C623.744 723.984 623.825 723.556 624.151 722.863C624.151 722.252 624.762 721.396 625.985 720.296L627.207 719.318C627.9 718.829 628.837 718.34 630.018 717.851C630.344 717.607 631.139 717.627 632.402 717.913C632.524 717.913 632.891 717.851 633.502 717.729L635.641 717.974C637.515 717.974 638.799 718.585 639.492 719.807C639.695 720.215 639.736 720.683 639.614 721.213C639.532 722.517 638.779 723.108 637.353 722.985C635.926 722.985 635.03 723.006 634.663 723.047C633.278 723.413 632.382 723.902 631.974 724.513C631.037 725.899 630.446 727.04 630.202 727.936C629.957 728.792 629.774 729.81 629.652 730.992C629.489 733.111 629.366 734.353 629.285 734.72C629.244 735.046 629.183 735.433 629.102 735.881C629.061 736.329 629.163 736.635 629.407 736.798C629.57 736.798 629.855 736.737 630.263 736.615C630.548 736.329 631.18 736.248 632.157 736.37C632.28 736.329 632.341 736.329 632.341 736.37C632.382 736.37 632.443 736.37 632.524 736.37L633.502 736.248L635.702 736.37C636.68 736.492 637.312 736.798 637.597 737.287C637.923 737.735 637.964 738.183 637.719 738.632C637.475 739.08 637.067 739.406 636.497 739.609C632.259 740.547 629.672 741.137 628.735 741.382C628.694 741.871 628.653 742.319 628.613 742.727C628.572 743.134 628.552 743.541 628.552 743.949V748.655L628.735 750.794L628.674 751.466V752.628L628.613 754.033C628.816 756.397 629.061 758.495 629.346 760.328C629.631 761.347 629.774 762.04 629.774 762.407C629.774 763.14 629.265 763.751 628.246 764.24C626.168 765.136 624.742 765.035 623.968 763.934C623.927 763.853 623.866 763.751 623.784 763.629C623.744 763.547 623.723 763.486 623.723 763.446L623.479 762.773C623.479 762.732 623.356 762.121 623.112 760.94L622.806 760.267L622.623 759.595ZM651.627 742.299V741.626C651.627 741.178 651.607 740.954 651.566 740.954L651.2 740.832C650.914 740.832 650.69 740.791 650.527 740.71C650.242 740.791 650.018 740.913 649.855 741.076C649.325 741.402 648.959 741.789 648.755 742.238L647.41 744.927C646.799 746.19 646.453 747.82 646.371 749.816C647.431 750.264 648.205 750.244 648.694 749.755C648.979 749.511 649.223 749.225 649.427 748.899C649.509 748.614 649.672 748.349 649.916 748.105C650.161 747.82 650.405 747.147 650.65 746.088C651.301 745.069 651.627 743.806 651.627 742.299ZM657.067 743.154V743.827C656.985 746.312 656.252 748.553 654.867 750.55C654.663 750.835 654.378 751.161 654.011 751.527L652.666 752.872C652.381 753.157 652.014 753.422 651.566 753.667L650.222 754.033C650.099 753.952 649.753 753.87 649.183 753.789C648.734 753.952 648.347 753.911 648.021 753.667C647.981 753.667 647.757 753.585 647.349 753.422C646.982 753.259 646.514 753.157 645.943 753.117C646.025 753.768 646.066 754.482 646.066 755.256L646.799 758.067C647.247 758.923 647.675 759.473 648.083 759.717C648.531 759.921 648.999 760.043 649.488 760.084C650.018 760.084 650.405 760.023 650.65 759.901C650.935 759.778 651.403 759.595 652.055 759.351L653.278 758.739C654.133 758.25 654.867 758.373 655.478 759.106C655.804 759.473 655.946 759.962 655.906 760.573C655.865 761.143 655.62 761.673 655.172 762.162C654.928 762.732 654.296 763.262 653.278 763.751C653.237 763.751 653.053 763.833 652.728 763.996C650.894 764.892 648.857 765.014 646.616 764.362L645.454 763.812C645.332 763.812 645.21 763.751 645.088 763.629C644.599 763.507 644.069 763.201 643.499 762.712C642.928 762.223 642.521 761.816 642.276 761.49C642.073 761.164 641.93 760.94 641.849 760.817C641.767 760.695 641.624 760.43 641.421 760.023C640.728 758.719 640.219 757.476 639.893 756.295L639.526 754.522C639.608 754.359 639.628 753.891 639.587 753.117V752.139C639.22 751.487 639.445 750 640.259 747.677C640.911 744.58 641.441 742.767 641.849 742.238L642.643 740.648C642.643 740.608 642.888 740.302 643.376 739.732C643.458 739.528 643.927 739.121 644.782 738.509C644.945 738.265 645.19 738.122 645.516 738.082C645.679 737.919 645.943 737.776 646.31 737.654C646.636 737.368 647.125 737.185 647.777 737.104C648.388 736.9 649.325 736.839 650.588 736.92C653.481 737.165 655.457 738.387 656.517 740.587L656.945 741.932C656.945 742.136 657.006 742.38 657.128 742.665C657.087 742.747 657.067 742.91 657.067 743.154ZM662.413 741.137L662.352 740.648C662.352 740.445 662.474 740.139 662.718 739.732C662.922 739.406 663.228 739.019 663.635 738.57C664.043 738.122 664.287 737.857 664.369 737.776C664.898 737.409 665.367 737.185 665.774 737.104C666.06 736.9 666.671 736.696 667.608 736.492H668.28C668.525 736.492 668.708 736.513 668.83 736.554C668.952 736.594 669.38 736.676 670.114 736.798C671.255 736.717 672.395 736.859 673.536 737.226C673.822 737.43 674.046 737.593 674.209 737.715C674.372 737.837 674.596 738.02 674.881 738.265C675.207 738.469 675.574 738.733 675.981 739.059C676.429 739.345 677.02 739.813 677.753 740.465C679.22 741.81 679.689 743.175 679.159 744.56L678.609 745.721C677.998 746.332 677.346 746.536 676.653 746.332L676.103 746.271C675.655 746.027 675.288 745.538 675.003 744.805C674.636 744.479 674.392 744.254 674.27 744.132C673.129 742.991 671.906 742.258 670.603 741.932C669.91 741.973 669.238 742.339 668.586 743.032C667.934 743.725 667.954 744.621 668.647 745.721C668.647 746.088 668.688 746.312 668.769 746.394C668.851 746.475 669.034 746.781 669.319 747.31C669.849 747.962 670.256 748.512 670.542 748.961C670.745 749.531 671.071 749.938 671.519 750.183L671.886 750.977C672.008 751.018 672.579 751.365 673.597 752.016C673.842 752.22 674.086 752.526 674.331 752.933C674.331 752.933 675.125 753.809 676.714 755.561C676.959 755.806 677.203 756.193 677.448 756.723C677.937 757.211 678.181 757.66 678.181 758.067C678.222 758.475 678.141 758.923 677.937 759.412C677.937 759.86 677.733 760.227 677.326 760.512C676.959 760.797 676.674 761.042 676.47 761.245C676.307 761.408 675.635 761.856 674.453 762.59C674.372 762.794 673.434 763.262 671.642 763.996L669.808 764.485C669.767 764.485 669.584 764.505 669.258 764.546C668.932 764.627 668.402 764.668 667.669 764.668H667.18C666.976 764.749 666.508 764.79 665.774 764.79C664.47 764.749 663.33 764.444 662.352 763.873C662.148 763.792 662.026 763.69 661.985 763.568C661.17 762.264 660.763 761.714 660.763 761.918C660.6 761.714 660.477 761.306 660.396 760.695C660.355 760.084 660.314 759.717 660.274 759.595C660.233 759.432 660.294 759.208 660.457 758.923C660.824 758.271 661.557 758.23 662.657 758.801L663.452 759.228C663.819 759.595 664.267 759.819 664.796 759.901C665.082 759.86 665.428 759.86 665.835 759.901C666.243 759.941 666.63 759.941 666.997 759.901L668.097 759.412H668.036C668.076 759.371 668.199 759.351 668.402 759.351C668.606 759.31 668.912 759.228 669.319 759.106C670.501 758.739 670.969 758.169 670.725 757.395L670.297 756.661C669.849 755.724 669.36 755.052 668.83 754.645L668.341 754.339C666.711 752.75 665.428 751.405 664.491 750.305C664.369 750.224 664.104 750 663.696 749.633C663.33 749.266 663.044 748.655 662.841 747.799C662.474 747.025 662.27 746.495 662.229 746.21V745.049C662.229 744.967 662.209 744.723 662.168 744.316C662.128 743.908 662.128 743.562 662.168 743.277C662.25 742.951 662.25 742.706 662.168 742.543C662.128 742.38 662.209 741.912 662.413 741.137ZM687.741 740.282L687.803 739.732C686.947 739.65 686.336 739.589 685.969 739.548C685.643 739.467 685.093 739.385 684.319 739.304C683.545 739.222 682.934 739.1 682.485 738.937C681.63 738.652 681.141 737.919 681.018 736.737C680.896 735.515 681.283 734.761 682.18 734.476C682.995 734.272 683.565 734.17 683.891 734.17C684.217 734.17 684.828 734.129 685.725 734.048C686.173 733.803 686.784 733.661 687.558 733.62L688.475 733.375C688.475 733.416 688.638 733.375 688.964 733.253L689.269 731.97C689.269 731.318 689.453 730.666 689.819 730.014C689.819 729.729 690.084 728.934 690.614 727.63C690.614 727.467 690.981 726.286 691.714 724.086C691.877 723.882 692.488 723.413 693.548 722.68C694.2 722.354 695.116 722.578 696.298 723.352C696.95 723.637 697.398 724.024 697.643 724.513C697.398 724.758 697.276 725.328 697.276 726.225C697.235 726.51 696.95 728.017 696.42 730.747V732.459C696.746 732.499 697.276 732.601 698.009 732.764C698.783 732.927 699.7 733.111 700.76 733.314C702.797 733.722 704.08 734.537 704.61 735.759C704.814 736.655 704.773 737.287 704.488 737.654C704.203 738.02 703.51 738.285 702.41 738.448C701.513 738.489 700.332 738.509 698.865 738.509C697.439 738.509 696.379 738.611 695.687 738.815C695.605 739.548 695.565 740.119 695.565 740.526L695.503 741.443C695.503 741.728 695.32 743.236 694.953 745.966C694.709 746.332 694.505 748.227 694.342 751.65V756.111C694.342 756.845 694.403 757.537 694.526 758.189C694.566 759.086 694.668 759.717 694.831 760.084C694.831 760.451 694.933 761.225 695.137 762.407C694.648 763.588 693.833 764.179 692.692 764.179C691.592 764.179 690.614 763.771 689.758 762.957L689.086 761.979C688.964 761.653 688.862 761.429 688.78 761.306C688.74 761.184 688.699 761.042 688.658 760.879C688.373 760.064 688.149 759.554 687.986 759.351C687.741 759.025 687.619 758.78 687.619 758.617C687.619 758.454 687.619 758.25 687.619 758.006C687.538 757.313 687.436 756.723 687.314 756.234C687.11 756.03 687.008 755.337 687.008 754.156C687.09 751.996 687.09 750.753 687.008 750.427C687.13 750.305 687.151 749.531 687.069 748.105L687.253 746.76C687.253 746.597 687.334 745.986 687.497 744.927C687.415 744.764 687.395 744.336 687.436 743.643C687.477 742.91 687.538 742.401 687.619 742.115C687.701 741.626 687.741 741.015 687.741 740.282ZM704.71 745.844C704.628 745.069 704.608 744.56 704.649 744.316V742.727L704.954 740.16C704.954 740.078 705.28 738.937 705.932 736.737C706.177 736.248 706.482 735.739 706.849 735.209C707.093 734.761 707.623 734.455 708.438 734.292C708.642 734.088 709.64 734.211 711.433 734.659C711.677 734.903 711.84 736.248 711.922 738.693L711.861 741.321V744.743L711.555 747.249L711.372 751.589C711.494 751.792 711.514 752.098 711.433 752.505C711.392 752.913 711.433 753.646 711.555 754.706C711.84 756.661 712.187 757.802 712.594 758.128C712.676 758.21 713.022 758.169 713.633 758.006C713.633 758.006 714.061 757.171 714.917 755.5L715.589 753.422V753.361L715.833 752.811C715.956 752.037 716.18 751.385 716.506 750.855C716.424 750.407 716.75 749.185 717.483 747.188L717.422 746.638L717.606 745.66L717.422 743.521C717.178 742.217 717.056 741.26 717.056 740.648L716.811 738.387C716.811 737.735 716.933 736.696 717.178 735.27C717.341 735.026 717.545 734.863 717.789 734.781C718.034 734.659 718.685 734.455 719.745 734.17C719.989 734.211 720.295 734.272 720.662 734.353C721.069 734.394 721.477 734.537 721.884 734.781C722.373 734.863 722.679 735.005 722.801 735.209C722.923 735.494 723.045 736.594 723.167 738.509C723.29 739.609 723.351 740.587 723.351 741.443C723.473 742.828 723.534 744.091 723.534 745.232L723.595 746.394V747.249C723.514 748.023 723.493 748.859 723.534 749.755C723.616 750.611 723.656 751.079 723.656 751.161C723.779 753.198 723.84 754.583 723.84 755.317C723.921 758.413 723.942 760.166 723.901 760.573C723.901 760.94 723.942 761.205 724.023 761.368L723.901 763.262C723.901 764.77 723.799 766.135 723.595 767.357C723.595 767.846 723.555 768.294 723.473 768.702C723.31 769.598 723.167 770.494 723.045 771.391L722.373 772.491C722.088 772.735 721.945 772.878 721.945 772.919C721.945 773 721.925 773.061 721.884 773.102C721.762 773.347 721.089 773.876 719.867 774.691C719.541 774.813 719.215 774.976 718.889 775.18C718.604 775.425 718.074 775.628 717.3 775.791C715.956 775.954 714.55 775.771 713.083 775.241L711.616 774.752C709.334 773.611 708.112 772.919 707.949 772.674C707.827 772.471 707.766 772.287 707.766 772.124C707.155 770.576 707.216 769.435 707.949 768.702C708.682 767.968 709.823 768.09 711.372 769.068C711.412 769.15 712.085 769.578 713.389 770.352C714.326 770.719 714.998 770.943 715.405 771.024L716.261 770.841L716.75 770.23L717.178 769.496C717.178 769.415 717.3 769.191 717.545 768.824C717.545 768.579 717.687 767.948 717.972 766.929C717.932 766.726 717.952 766.318 718.034 765.707C718.115 765.096 718.156 764.668 718.156 764.423V762.834C718.237 762.631 718.237 761.999 718.156 760.94C718.197 760.94 718.217 760.756 718.217 760.39C718.217 759.941 718.176 759.432 718.095 758.862C717.891 759.432 717.585 760.125 717.178 760.94L716.139 761.918C715.976 762.244 715.772 762.447 715.528 762.529C715.283 762.61 714.692 762.61 713.755 762.529C713.755 762.569 713.572 762.651 713.205 762.773C712.309 762.814 711.637 762.773 711.188 762.651C710.74 762.651 710.394 762.61 710.149 762.529C709.579 762.529 709.049 762.305 708.56 761.856C707.338 761.612 706.38 760.328 705.688 758.006C705.362 755.439 705.199 753.911 705.199 753.422C705.24 752.892 705.178 752.078 705.015 750.977V749.633C704.934 749.511 704.852 748.94 704.771 747.922C704.689 746.862 704.669 746.169 704.71 745.844ZM737.282 722.007L738.81 721.702C739.788 721.824 740.522 722.089 741.011 722.496C741.54 722.904 741.785 723.372 741.744 723.902C741.133 725.98 740.644 728.16 740.277 730.442V731.359C740.114 733.274 739.89 734.903 739.605 736.248L738.138 750.183V754.4C738.097 757.619 738.281 760.166 738.688 762.04L738.81 762.773C738.77 763.262 738.403 763.588 737.71 763.751C737.058 763.955 736.63 764.036 736.427 763.996C736.223 763.955 735.999 763.894 735.754 763.812L734.104 763.201C733.452 762.875 732.739 762.284 731.965 761.429C731.476 760.98 731.272 760.654 731.354 760.451C731.272 760.288 731.069 758.434 730.743 754.889C730.824 754.156 730.865 753.544 730.865 753.055V752.016C730.865 751.202 730.885 750.611 730.926 750.244C730.926 750.163 730.967 749.674 731.048 748.777C731.252 746.455 731.374 745.192 731.415 744.988V744.01C731.415 741.606 731.619 739.671 732.026 738.204C731.945 737.878 731.904 737.572 731.904 737.287C732.311 736.513 732.454 734.924 732.332 732.52C733.024 730.075 733.432 728.445 733.554 727.63C733.676 726.775 733.86 726.123 734.104 725.675C734.104 724.941 734.43 724.208 735.082 723.474C735.734 722.7 736.467 722.211 737.282 722.007ZM758.361 742.299C758.524 741.687 758.504 740.913 758.3 739.976C758.015 739.732 757.628 739.609 757.139 739.609C756.527 739.609 755.977 740.18 755.488 741.321C754.836 742.299 754.348 743.378 754.022 744.56H753.96C753.512 746.271 753.288 747.188 753.288 747.31C753.94 747.473 754.47 747.555 754.877 747.555C755.285 747.514 755.753 747.29 756.283 746.883C757.22 745.986 757.913 744.458 758.361 742.299ZM758.178 751.1L755.916 751.283C754.653 751.283 753.655 751.161 752.921 750.916L753.105 752.078C753.227 755.459 754.164 757.68 755.916 758.739C756.405 758.943 756.813 759.045 757.139 759.045C757.465 759.045 757.892 758.882 758.422 758.556C758.585 758.393 758.728 758.169 758.85 757.884C758.891 757.517 759.094 757.354 759.461 757.395C761.132 755.276 762.395 754.441 763.25 754.889C764.106 755.459 764.534 755.908 764.534 756.234C764.534 756.397 764.432 756.58 764.228 756.784V757.15C764.228 757.558 763.963 758.291 763.434 759.351C762.945 760.41 762.415 761.306 761.845 762.04C761.559 762.651 761.193 763.079 760.745 763.323C759.441 764.138 758.055 764.464 756.589 764.301C756.263 764.26 756.038 764.179 755.916 764.057C755.59 763.975 755.346 763.955 755.183 763.996L754.694 763.934C754.327 763.934 754.022 763.853 753.777 763.69C753.37 763.446 753.084 763.323 752.921 763.323C751.862 762.916 751.21 762.61 750.966 762.407C750.762 762.203 750.579 762.06 750.416 761.979C750.253 761.897 749.866 761.469 749.254 760.695C748.725 760.247 748.419 759.962 748.338 759.84C748.093 759.473 747.869 759.208 747.665 759.045C747.502 758.882 747.4 758.515 747.36 757.945C747.197 757.741 747.115 757.476 747.115 757.15L746.871 756.661C746.871 756.376 746.749 756.152 746.504 755.989C746.26 755.745 746.137 755.439 746.137 755.072V754.583C745.974 754.502 745.934 754.257 746.015 753.85V752.261L745.954 751.711V751.283C745.913 751.12 745.954 750.774 746.076 750.244L746.015 749.694C746.056 749.653 746.117 749.327 746.198 748.716C746.361 747.86 746.545 747.331 746.749 747.127V746.577C746.789 746.455 746.81 746.292 746.81 746.088C746.81 745.884 746.85 745.66 746.932 745.416C747.054 745.171 747.38 744.254 747.91 742.665L748.888 740.526C749.173 739.915 749.621 739.243 750.232 738.509C750.273 738.306 750.436 737.939 750.721 737.409L751.516 736.676C751.76 736.309 752.127 736.044 752.616 735.881C753.186 735.596 753.614 735.453 753.899 735.453L755.611 735.209C755.814 735.25 755.957 735.27 756.038 735.27H756.833C757.729 735.352 758.463 735.535 759.033 735.82C760.256 736.187 761.152 736.655 761.722 737.226C762.986 738.652 763.617 740.017 763.617 741.321C763.617 742.625 763.413 743.745 763.006 744.682C761.987 747.005 761.254 748.472 760.806 749.083C760.072 750.427 759.196 751.1 758.178 751.1ZM773.939 756.967C773.98 756.397 774.081 756.071 774.244 755.989C774.407 755.908 774.55 755.908 774.672 755.989C774.835 756.03 775.589 756.111 776.934 756.234C777.3 756.682 777.606 756.947 777.85 757.028C778.828 758.006 779.48 758.495 779.806 758.495C780.132 758.536 780.275 758.841 780.234 759.412C780.234 759.941 780.051 760.43 779.684 760.879C779.114 762.142 778.36 763.12 777.423 763.812C776.974 763.975 776.628 764.057 776.384 764.057C776.139 764.057 775.467 763.975 774.367 763.812C773.307 763.649 772.696 763.323 772.533 762.834V761.429C772.533 760.654 772.615 760.206 772.778 760.084C772.981 759.962 773.083 759.636 773.083 759.106L773.267 757.823C773.552 757.619 773.776 757.334 773.939 756.967ZM783.351 728.303C783.555 727.61 783.657 727.223 783.657 727.141C783.697 727.019 783.758 726.877 783.84 726.714C784.166 726.062 784.329 725.613 784.329 725.369V724.513C784.329 724.228 784.309 724.065 784.268 724.024C784.227 723.984 784.044 723.963 783.718 723.963C783.107 724.086 782.271 724.391 781.212 724.88C780.193 725.328 779.46 725.756 779.012 726.164C778.604 726.53 778.054 727.284 777.361 728.425C776.669 729.525 776.282 730.258 776.2 730.625C776.159 730.992 776.058 731.277 775.895 731.481C775.772 731.685 775.63 732.173 775.467 732.948C775.345 733.681 775.283 734.17 775.283 734.414C775.283 734.618 775.385 734.72 775.589 734.72C776.037 734.802 775.895 734.965 775.161 735.209C775.039 735.29 774.815 735.331 774.489 735.331C774.163 735.331 773.959 735.29 773.878 735.209C773.104 735.209 772.655 735.107 772.533 734.903C772.085 734.903 771.596 734.74 771.066 734.414C770.537 734.048 770.19 733.64 770.027 733.192C769.457 731.522 769.64 729.953 770.577 728.486C771.107 726.938 771.677 725.939 772.289 725.491C772.981 724.024 773.389 723.23 773.511 723.108C773.674 722.945 773.817 722.843 773.939 722.802C774.102 722.395 774.183 722.15 774.183 722.069C774.183 721.946 774.367 721.783 774.733 721.58C775.1 721.335 775.385 721.131 775.589 720.968C775.997 720.643 776.2 720.398 776.2 720.235C776.485 720.235 776.75 720.174 776.995 720.052C777.565 719.929 777.932 719.726 778.095 719.441C778.339 719.441 778.849 719.318 779.623 719.074C780.397 718.829 781.436 718.768 782.74 718.89C782.944 718.972 783.331 719.176 783.901 719.502C784.472 719.787 784.798 719.97 784.879 720.052C784.96 720.092 785.062 720.133 785.185 720.174C785.511 720.296 785.796 720.52 786.04 720.846C786.407 720.928 786.753 721.07 787.079 721.274C787.487 721.641 787.996 721.926 788.607 722.13L789.646 722.741C790.135 722.822 790.543 722.884 790.869 722.924C791.032 722.924 791.235 723.209 791.48 723.78C791.561 725.899 790.624 728.751 788.668 732.336C788.546 732.622 788.322 733.07 787.996 733.681C787.711 734.251 787.548 734.659 787.507 734.903C787.1 735.8 785.999 738.122 784.207 741.871C782.414 745.619 781.375 747.759 781.09 748.288C781.049 748.288 780.947 748.41 780.784 748.655C780.621 748.859 780.499 748.981 780.417 749.022L780.112 749.694C780.112 749.898 779.888 750.061 779.439 750.183C779.032 750.264 778.706 750.285 778.462 750.244H776.506C775.528 750.04 774.957 749.857 774.795 749.694C774.632 749.531 774.55 749.022 774.55 748.166C774.55 745.477 775.1 743.256 776.2 741.504C776.608 740.486 776.974 739.691 777.3 739.121C777.667 738.509 777.891 738.041 777.973 737.715C778.054 737.389 778.38 736.941 778.951 736.37C779.195 735.718 779.439 735.229 779.684 734.903C779.888 734.822 780.173 734.435 780.54 733.742C780.947 733.049 781.151 732.601 781.151 732.398C781.151 732.153 781.334 731.909 781.701 731.664C781.701 731.501 781.823 731.236 782.068 730.87C782.068 730.299 782.19 729.892 782.434 729.647C782.679 729.362 782.801 729.036 782.801 728.669C782.801 728.425 782.984 728.303 783.351 728.303ZM826.339 728.792C826.258 729.525 826.217 730.279 826.217 731.053C826.217 732.52 826.136 733.844 825.973 735.026C825.81 736.207 825.708 737.022 825.667 737.47C825.626 737.878 825.565 738.285 825.484 738.693V739.121C825.484 739.854 825.321 740.587 824.995 741.321L824.811 744.071L824.567 749.877V752.933C824.567 754.482 824.486 755.317 824.323 755.439L824.384 757.028V757.7L824.323 758.434C824.323 758.597 824.282 758.678 824.2 758.678C824.282 759.167 824.078 759.697 823.589 760.267C823.141 760.797 822.57 761.143 821.878 761.306L820.778 761.49C820.615 761.49 820.391 761.51 820.105 761.551C819.82 761.551 819.576 761.51 819.372 761.429C819.168 761.347 818.965 761.245 818.761 761.123C818.353 760.879 818.068 760.41 817.905 759.717C817.783 759.514 817.538 758.271 817.172 755.989C817.172 755.5 817.131 754.889 817.049 754.156L817.233 752.689V751.527C817.233 750.794 817.314 750.285 817.477 750C817.314 749.755 817.416 749.225 817.783 748.41C817.498 748.044 817.518 747.229 817.844 745.966C817.681 745.436 817.681 745.09 817.844 744.927C817.926 744.682 817.966 744.112 817.966 743.215L818.027 742.604C818.027 741.423 818.15 740.343 818.394 739.365C818.313 739.243 818.313 738.917 818.394 738.387C818.476 737.857 818.537 737.226 818.577 736.492V736.065C818.618 735.453 818.639 734.802 818.639 734.109L818.7 733.559C818.7 733.314 818.74 732.825 818.822 732.092C818.944 731.359 819.046 730.584 819.128 729.769H819.005C814.686 730.951 812.038 731.542 811.06 731.542L810.021 731.603C809.41 731.603 808.778 731.501 808.126 731.297C807.8 731.134 807.556 730.707 807.393 730.014C807.393 728.669 807.678 727.691 808.249 727.08C808.86 726.469 809.98 725.899 811.61 725.369C812.017 725.328 814.544 724.473 819.189 722.802L821.817 722.191C822.306 722.028 823.08 721.946 824.139 721.946C825.199 721.946 826.075 721.824 826.767 721.58C827.501 721.294 828.295 721.091 829.151 720.968C830.007 720.806 830.903 720.643 831.84 720.48C832.288 720.317 833.103 720.357 834.285 720.602C834.733 720.602 835.446 721.07 836.424 722.007L836.791 722.863C836.791 723.108 836.852 723.291 836.974 723.413C837.137 724.513 836.892 725.226 836.241 725.552C835.996 725.675 835.568 725.838 834.957 726.041C834.142 726.041 832.105 726.449 828.845 727.264C828.682 727.264 827.867 727.386 826.401 727.63L826.339 728.425V728.792ZM834.957 743.827C834.957 743.46 834.916 743.032 834.834 742.543V742.115C834.875 741.83 834.855 741.525 834.773 741.199C834.773 740.791 834.814 740.424 834.895 740.098C834.895 739.284 834.997 738.754 835.201 738.509C835.201 738.306 835.486 737.837 836.057 737.104C836.22 736.941 836.525 736.676 836.974 736.309C837.625 736.105 838.074 735.983 838.318 735.942C838.481 735.779 839.031 735.841 839.968 736.126C840.376 736.167 841.007 736.309 841.863 736.554C842.148 736.635 842.515 736.961 842.963 737.531C842.882 737.694 842.739 738.306 842.535 739.365C842.372 740.384 842.311 741.219 842.352 741.871C842.596 741.667 843.024 741.239 843.635 740.587C844.247 739.935 844.573 739.589 844.613 739.548C845.673 739.059 846.712 738.713 847.73 738.509C849.197 738.387 850.155 738.489 850.603 738.815C850.97 738.937 851.255 739.121 851.458 739.365C851.825 739.691 852.131 740.261 852.375 741.076C852.62 741.85 852.599 742.339 852.314 742.543C852.07 742.747 851.255 742.91 849.869 743.032C849.788 743.032 849.503 743.195 849.014 743.521L845.836 746.027C845.184 746.353 844.735 746.638 844.491 746.883L843.33 749.022C843.289 749.103 843.248 749.633 843.208 750.611C843.167 751.589 843.167 752.302 843.208 752.75C843.248 753.157 843.248 754.522 843.208 756.845V759.473C843.208 760.899 843.187 761.714 843.146 761.918C843.106 762.162 842.943 762.569 842.657 763.14C842.535 763.344 842.148 763.446 841.496 763.446C839.907 764.627 838.889 764.566 838.44 763.262L837.646 762.773C837.32 762.61 837.116 762.407 837.035 762.162C836.709 761.714 836.546 761.449 836.546 761.368L836.301 760.512L835.934 759.778C835.812 759.738 835.71 758.964 835.629 757.456C835.547 755.908 835.507 754.97 835.507 754.645C835.507 754.278 835.466 753.891 835.384 753.483C835.67 753.198 835.792 752.709 835.751 752.016C835.751 751.324 835.71 750.794 835.629 750.427C835.547 750.02 835.547 749.775 835.629 749.694C835.71 749.572 835.69 749.001 835.568 747.983C835.446 747.82 835.425 747.514 835.507 747.066L834.957 743.827ZM855.177 745.844C855.096 745.069 855.075 744.56 855.116 744.316V742.727L855.422 740.16C855.422 740.078 855.748 738.937 856.399 736.737C856.644 736.248 856.95 735.739 857.316 735.209C857.561 734.761 858.09 734.455 858.905 734.292C859.109 734.088 860.107 734.211 861.9 734.659C862.145 734.903 862.308 736.248 862.389 738.693L862.328 741.321V744.743L862.022 747.249L861.839 751.589C861.961 751.792 861.982 752.098 861.9 752.505C861.859 752.913 861.9 753.646 862.022 754.706C862.308 756.661 862.654 757.802 863.061 758.128C863.143 758.21 863.489 758.169 864.1 758.006C864.1 758.006 864.528 757.171 865.384 755.5L866.056 753.422V753.361L866.301 752.811C866.423 752.037 866.647 751.385 866.973 750.855C866.891 750.407 867.217 749.185 867.951 747.188L867.89 746.638L868.073 745.66L867.89 743.521C867.645 742.217 867.523 741.26 867.523 740.648L867.278 738.387C867.278 737.735 867.401 736.696 867.645 735.27C867.808 735.026 868.012 734.863 868.256 734.781C868.501 734.659 869.153 734.455 870.212 734.17C870.457 734.211 870.762 734.272 871.129 734.353C871.536 734.394 871.944 734.537 872.351 734.781C872.84 734.863 873.146 735.005 873.268 735.209C873.39 735.494 873.513 736.594 873.635 738.509C873.757 739.609 873.818 740.587 873.818 741.443C873.94 742.828 874.001 744.091 874.001 745.232L874.063 746.394V747.249C873.981 748.023 873.961 748.859 874.001 749.755C874.083 750.611 874.124 751.079 874.124 751.161C874.246 753.198 874.307 754.583 874.307 755.317C874.389 758.413 874.409 760.166 874.368 760.573C874.368 760.94 874.409 761.205 874.49 761.368L874.368 763.262C874.368 764.77 874.266 766.135 874.063 767.357C874.063 767.846 874.022 768.294 873.94 768.702C873.777 769.598 873.635 770.494 873.513 771.391L872.84 772.491C872.555 772.735 872.412 772.878 872.412 772.919C872.412 773 872.392 773.061 872.351 773.102C872.229 773.347 871.557 773.876 870.334 774.691C870.008 774.813 869.682 774.976 869.356 775.18C869.071 775.425 868.542 775.628 867.767 775.791C866.423 775.954 865.017 775.771 863.55 775.241L862.083 774.752C859.802 773.611 858.579 772.919 858.416 772.674C858.294 772.471 858.233 772.287 858.233 772.124C857.622 770.576 857.683 769.435 858.416 768.702C859.15 767.968 860.291 768.09 861.839 769.068C861.88 769.15 862.552 769.578 863.856 770.352C864.793 770.719 865.465 770.943 865.873 771.024L866.728 770.841L867.217 770.23L867.645 769.496C867.645 769.415 867.767 769.191 868.012 768.824C868.012 768.579 868.155 767.948 868.44 766.929C868.399 766.726 868.419 766.318 868.501 765.707C868.582 765.096 868.623 764.668 868.623 764.423V762.834C868.705 762.631 868.705 761.999 868.623 760.94C868.664 760.94 868.684 760.756 868.684 760.39C868.684 759.941 868.643 759.432 868.562 758.862C868.358 759.432 868.053 760.125 867.645 760.94L866.606 761.918C866.443 762.244 866.239 762.447 865.995 762.529C865.751 762.61 865.16 762.61 864.223 762.529C864.223 762.569 864.039 762.651 863.673 762.773C862.776 762.814 862.104 762.773 861.656 762.651C861.207 762.651 860.861 762.61 860.617 762.529C860.046 762.529 859.516 762.305 859.028 761.856C857.805 761.612 856.848 760.328 856.155 758.006C855.829 755.439 855.666 753.911 855.666 753.422C855.707 752.892 855.646 752.078 855.483 750.977V749.633C855.401 749.511 855.32 748.94 855.238 747.922C855.157 746.862 855.136 746.169 855.177 745.844ZM897.218 723.535C899.948 723.535 901.863 724.086 902.963 725.186C902.963 725.878 902.494 727.284 901.557 729.403C901.394 730.095 901.129 730.646 900.763 731.053L899.968 731.847C899.764 731.97 899.561 732.031 899.357 732.031C897.89 732.398 896.749 732.112 895.934 731.175C895.771 730.931 895.568 730.747 895.323 730.625C895.119 730.503 894.956 730.136 894.834 729.525C894.467 728.995 894.284 728.588 894.284 728.303C894.203 725.776 895.119 724.187 897.034 723.535H897.218ZM896.729 737.959C897.136 737.756 898.094 737.959 899.601 738.57C899.764 738.733 900.009 738.896 900.335 739.059L901.313 739.854C901.476 740.017 901.557 740.282 901.557 740.648V746.027C901.557 746.842 901.516 747.575 901.435 748.227V748.594C901.313 750.264 901.414 754.033 901.74 759.901C901.863 761.042 901.598 761.734 900.946 761.979C900.253 761.979 899.805 761.877 899.601 761.673C899.438 761.592 899.296 761.551 899.174 761.551H898.746L898.379 761.673C898.257 761.673 898.033 761.592 897.707 761.429C897.381 761.225 897.157 761.021 897.034 760.817C896.953 760.614 896.79 760.491 896.545 760.451C896.097 760.288 895.853 759.982 895.812 759.534C895.242 758.434 894.936 757.782 894.895 757.578C894.895 757.374 894.834 757.15 894.712 756.906L894.406 751.589C894.406 750.977 894.447 750.509 894.529 750.183V748.716C894.569 748.268 894.61 747.453 894.651 746.271C894.692 745.049 894.753 744.071 894.834 743.338C894.753 742.278 894.712 741.565 894.712 741.199C894.712 740.832 894.732 740.567 894.773 740.404C894.325 739.956 894.345 739.345 894.834 738.57C895.364 738.163 895.873 737.959 896.362 737.959H896.729ZM905.748 737.898C905.625 737.287 905.544 736.941 905.503 736.859C905.299 736.452 905.197 736.085 905.197 735.759C905.197 735.433 905.177 735.27 905.136 735.27C905.218 734.333 905.585 733.64 906.236 733.192C906.888 732.703 907.805 732.581 908.987 732.825L910.943 733.559L913.754 734.231L915.16 730.197C915.526 729.545 915.71 729.097 915.71 728.853C915.75 728.608 915.832 728.343 915.954 728.058C916.117 727.488 916.28 727.06 916.443 726.775L916.688 725.797C916.973 725.267 917.543 724.921 918.399 724.758C918.888 724.554 919.316 724.554 919.682 724.758C920.783 724.799 921.618 725.206 922.188 725.98C922.188 726.184 922.127 726.51 922.005 726.958C921.883 727.406 921.781 727.997 921.699 728.73L920.171 734.842H920.66L922.188 734.781C922.392 734.822 922.616 734.842 922.861 734.842C923.757 734.639 924.45 734.516 924.939 734.476C925.428 734.394 925.753 734.333 925.916 734.292C926.039 734.333 926.385 734.333 926.955 734.292C927.526 734.251 928.117 734.435 928.728 734.842C929.339 735.209 929.645 735.678 929.645 736.248C929.645 736.778 929.258 737.246 928.483 737.654L927.933 738.387C927.281 738.632 926.711 738.917 926.222 739.243C925.652 739.569 923.309 740.119 919.193 740.893L918.766 744.01C918.847 744.214 918.888 744.377 918.888 744.499C918.603 746.251 918.358 748.431 918.154 751.039C918.195 751.976 918.216 752.607 918.216 752.933V754.583C918.175 754.665 918.154 754.93 918.154 755.378C918.154 756.397 918.277 757.599 918.521 758.984C918.766 760.328 918.908 761.143 918.949 761.429C918.99 761.714 919.01 762.04 919.01 762.407C918.969 763.099 918.684 763.547 918.154 763.751C916.851 763.751 915.75 763.527 914.854 763.079C914.121 762.957 913.795 762.794 913.876 762.59C913.591 762.386 913.265 761.999 912.898 761.429C912.898 761.103 912.878 760.919 912.837 760.879C912.552 760.756 912.409 760.43 912.409 759.901C912.369 759.86 912.328 759.717 912.287 759.473L911.859 757.945C911.493 757.456 911.37 756.804 911.493 755.989C911.493 755.826 911.431 755.622 911.309 755.378V754.95C911.309 754.624 911.33 754.38 911.37 754.217C911.167 753.076 911.187 751.731 911.431 750.183C911.676 748.594 911.839 747.453 911.92 746.76C911.839 746.557 911.88 746.292 912.043 745.966C912.043 745.599 912.124 745.029 912.287 744.254L912.837 740.771C912.593 740.689 912.348 740.648 912.104 740.648C909.944 740.16 908.824 739.854 908.742 739.732L908.009 739.304C907.724 739.304 907.316 739.161 906.787 738.876C906.257 738.55 905.91 738.224 905.748 737.898Z" fill="white"/>
<path d="M667.207 332.329L683.76 341.242H699.039L688.853 338.696L679.94 334.876L673.573 332.329L668.48 329.783L662.114 324.689L654.474 320.87L646.834 315.776L639.194 308.137L630.281 300.497L625.188 294.13L620.095 287.764L612.455 278.851L607.362 272.484L603.542 262.298C601.42 259.327 597.176 253.13 597.176 252.112C597.176 251.093 595.478 247.443 594.629 245.745L589.536 231.739L588.263 227.919L586.989 215.186L585.716 212.64V176.988L588.263 166.801V162.981L589.536 154.068L590.809 147.702L592.083 142.609L593.356 137.516L595.902 133.696L597.176 127.329L602.269 118.416L604.816 114.596L609.909 106.957L615.002 98.0435L622.642 87.8571L627.735 82.764L634.101 73.8509L643.014 67.4845L654.474 59.8447L668.48 49.6584L682.486 44.5652L693.946 40.7453L709.225 35.6522L716.865 34.3789L762.704 35.6522L771.617 38.1988L784.35 40.7453L793.263 44.5652L808.542 52.205L823.822 59.8447L836.555 71.3044L849.288 82.764L859.474 96.7702L868.387 106.957L874.753 118.416L881.12 134.969L884.94 145.155L888.76 157.888V176.988V211.366L884.94 229.193L874.753 248.292L868.387 261.025L860.747 272.484L850.561 287.764L839.101 297.95L827.642 306.863L818.729 314.503L812.362 317.05L811.089 319.596H805.996L804.722 318.323L802.176 315.776L800.902 314.503H797.083L795.809 311.957L794.536 309.41H790.716H785.623L781.803 311.957L780.53 314.503H776.71L774.163 317.05L771.617 319.596L769.07 322.143H766.524V324.689H763.977V325.963L761.43 327.236V329.783H758.884V332.329H756.337V334.876H753.791V337.422H751.244V339.969H748.697V350.155H751.244V352.702H753.791L756.337 355.248H774.163V352.702H784.35H791.989L795.809 351.429L799.629 350.155V347.609H804.722V345.062H807.269V342.516V339.969H809.816V332.329V328.509H811.089L818.729 324.689L830.188 320.87L851.834 306.863L872.207 285.217L884.94 263.571L901.493 234.286L911.679 201.18V175.714V150.248L906.586 124.783L895.126 96.7702L884.94 77.6708L872.207 59.8447L851.834 39.472L830.188 22.9193L808.542 12.7329L777.983 3.81988L756.337 0H720.685L696.493 3.81988L672.3 12.7329L651.927 22.9193L639.194 28.0124L622.642 43.2919L607.362 59.8447L594.629 77.6708L574.257 109.503L569.163 134.969L562.797 180.807L574.257 222.826L589.536 263.571L602.269 285.217L626.461 306.863L648.107 320.87L667.207 332.329Z" fill="#FFFDFD"/>
</svg>
