<svg width="353" height="273" viewBox="0 0 353 273" fill="none" xmlns="http://www.w3.org/2000/svg">
<path d="M24.804 181.459C21.7855 181.459 18.8983 181.131 16.1423 180.475C13.3863 179.819 10.8927 178.834 8.6617 177.522C2.88724 173.847 0 168.991 0 162.955C0 158.23 1.57486 153.44 4.72457 148.584C8.00551 143.597 12.2051 138.872 17.3234 134.41C22.4417 129.948 27.8224 126.274 33.4657 123.386C36.8779 121.549 40.29 120.237 43.7022 119.449C47.1144 118.662 50.1329 118.268 52.7577 118.268C57.351 118.268 60.3695 119.187 61.8131 121.024C63.3879 122.73 64.1754 124.764 64.1754 127.127C64.1754 129.62 63.3879 132.048 61.8131 134.41C60.2382 136.641 58.0072 138.872 55.1199 141.103C50.1329 145.172 43.3085 148.781 34.6468 151.931C26.1164 155.08 17.3234 157.311 8.26799 158.624C6.95561 161.248 6.29942 163.676 6.29942 165.907C6.5619 169.582 8.46485 172.207 12.0083 173.782C15.6829 175.225 19.7513 175.947 24.2134 175.947C25.7883 175.947 27.2975 175.881 28.7411 175.75C30.1847 175.619 31.5627 175.422 32.8751 175.16C39.437 173.847 46.1301 171.485 52.9545 168.073C59.9101 164.661 66.6033 160.723 73.0339 156.261C79.4646 151.799 85.239 147.337 90.3573 142.875C91.1447 142.613 91.6697 142.481 91.9322 142.481C92.8508 142.481 93.3102 142.941 93.3102 143.859C93.3102 144.516 93.0477 145.172 92.5228 145.828C91.6041 147.403 89.7011 149.437 86.8139 151.931C84.0579 154.424 80.9082 156.983 77.3648 159.608C73.8213 162.101 70.3435 164.529 66.9314 166.892C63.6504 169.123 60.8944 170.829 58.6634 172.01C53.9388 174.635 48.558 176.866 42.5211 178.703C36.4841 180.54 30.5784 181.459 24.804 181.459ZM11.6146 153.112C15.8142 152.062 20.67 150.749 26.182 149.175C31.694 147.468 36.9435 145.5 41.9305 143.269C46.9176 140.907 50.6578 138.347 53.1514 135.591C54.2013 134.542 54.9231 133.492 55.3168 132.442C55.7105 131.261 55.9074 130.276 55.9074 129.489C55.9074 128.833 55.6449 128.242 55.1199 127.717C54.7262 127.192 53.4138 126.93 51.1828 126.93C48.0331 126.93 43.9647 128.242 38.9777 130.867C33.9906 133.36 29.0036 136.641 24.0165 140.71C19.1607 144.647 15.0267 148.781 11.6146 153.112Z" fill="white"/>
<path d="M70.9716 184.9C68.7405 184.9 67.625 183.85 67.625 181.75C67.625 180.438 67.9531 178.994 68.6093 177.419C69.3967 175.844 70.3154 174.138 71.3653 172.301C73.0714 169.283 74.9743 166.133 77.0741 162.852C79.3052 159.571 81.2081 156.881 82.783 154.781C84.0954 153.075 85.9327 150.647 88.295 147.497C90.6573 144.347 92.8883 141.001 94.9881 137.457C97.8753 132.733 99.319 128.796 99.319 125.646C99.319 123.94 98.794 122.628 97.7441 121.709C97.2192 121.184 96.6942 120.593 96.1693 119.937C95.6443 119.15 95.3818 118.494 95.3818 117.969C95.3818 116.656 95.9068 116 96.9567 116C98.0066 116 98.9909 116.394 99.9095 117.181C100.828 117.706 101.812 118.428 102.862 119.347C104.044 120.265 105.093 121.315 106.012 122.496C106.406 123.021 106.8 123.546 107.193 124.071C107.718 124.465 108.112 124.99 108.374 125.646C108.768 126.302 109.096 127.024 109.359 127.811C109.621 128.468 109.752 129.255 109.752 130.174C109.752 132.011 108.965 134.242 107.39 136.867C105.028 140.935 102.206 144.741 98.9252 148.285C95.7755 151.697 92.6914 155.109 89.673 158.521C89.2793 159.046 88.8199 159.571 88.295 160.096C87.9013 160.49 87.5075 160.949 87.1138 161.474C92.2321 156.749 97.7441 151.894 103.65 146.907C109.687 141.788 114.936 137.785 119.398 134.898C120.842 133.98 122.745 133.127 125.107 132.339C127.469 131.42 129.701 130.961 131.8 130.961C133.769 130.961 135.475 131.552 136.919 132.733C138.493 133.783 139.281 135.817 139.281 138.835C139.281 141.46 138.756 144.479 137.706 147.891C136.656 151.172 135.606 154.19 134.556 156.946C133.638 159.046 132.916 161.08 132.391 163.049C131.866 164.886 131.603 166.527 131.603 167.97C131.603 172.564 134.013 175.5 139 175.5C140.312 175.5 142.294 175.262 144 175C145.837 174.606 148.4 174.287 150.5 173.5C157.193 171.006 161.5 169.5 161.5 169.5C161.5 169.5 163.273 168.864 164.5 169C165.114 169.068 165.5 169.383 165.5 170C165.5 171 164.788 171.808 164.211 172.096C154.211 177.096 156.711 175.596 151 178C146.275 179.575 141.643 180.766 136.525 180.766C132.588 180.766 129.044 179.847 125.895 178.01C122.745 176.173 121.17 173.023 121.17 168.561C121.17 165.936 121.826 162.852 123.139 159.309C124.057 156.946 125.042 154.518 126.091 152.025C127.273 149.531 127.994 147.038 128.257 144.544C128.388 144.019 128.454 143.56 128.454 143.166C128.454 142.641 128.454 142.248 128.454 141.985C128.454 140.41 128.191 139.426 127.666 139.032C127.273 138.639 126.813 138.442 126.288 138.442C124.976 138.442 123.336 138.967 121.367 140.017C119.53 140.935 117.824 141.919 116.249 142.969C114.805 143.888 112.508 145.725 109.359 148.481C106.34 151.106 102.994 154.125 99.319 157.537C95.7755 160.818 92.3633 163.967 89.0824 166.986C86.9826 168.955 84.9484 170.989 82.9798 173.089C81.1425 175.057 79.4364 176.894 77.8616 178.6C76.1555 180.438 74.7118 181.947 73.5307 183.128C72.3496 184.309 71.4965 184.9 70.9716 184.9Z" fill="white"/>
<path d="M169 149.629C165.395 142.224 157 142.731 157 142.731C157 142.731 159.117 138.194 161.5 136.231C165.786 132.699 170.03 132.767 175.5 133.731C185.163 135.434 192 151.129 192 151.129C192 151.129 216.502 119.752 235 102.231C252 86.1289 264.101 81.429 269.5 80.1288C272 79.5267 274.5 81.2309 274.5 81.2309C274.5 81.2309 246.449 107.928 231 127.231C212.658 150.149 192 189.129 192 189.129C192 189.129 187.5 187.629 169 149.629Z" fill="white"/>
<path d="M172.787 272.444C168.849 272.444 165.109 271.788 161.566 270.476C157.891 269.163 154.873 267.26 152.51 264.767C150.148 262.273 148.967 259.255 148.967 255.711C148.967 247.837 151.526 240.75 156.644 234.451C161.763 228.283 167.931 222.836 175.149 218.112C178.692 215.618 182.433 213.321 186.37 211.222C190.176 209.122 193.982 207.153 197.787 205.316C201.593 203.479 205.202 201.773 208.615 200.198C212.027 198.754 215.176 197.376 218.064 196.064C221.082 194.751 224.888 193.242 229.481 191.536C234.075 189.83 238.996 188.058 244.246 186.221C249.495 184.515 254.679 182.809 259.797 181.103C265.047 179.528 269.771 178.15 273.971 176.969C275.94 173.163 277.646 168.766 279.089 163.779C280.664 158.661 281.452 154.199 281.452 150.393C281.452 147.506 280.992 145.406 280.074 144.093C277.58 146.587 275.349 148.884 273.38 150.983C271.543 152.952 269.64 154.921 267.672 156.889C265.703 158.726 263.275 160.892 260.388 163.385C256.32 166.929 252.12 170.079 247.789 172.835C243.458 175.459 239.39 176.772 235.584 176.772C231.778 176.772 228.694 175.197 226.332 172.047C224.888 170.079 224.166 167.716 224.166 164.96C224.166 160.629 225.741 156.036 228.891 151.18C232.041 146.193 235.846 141.534 240.309 137.203C240.571 136.81 241.227 136.022 242.277 134.841C243.327 133.66 244.443 132.413 245.624 131.101C246.805 129.789 247.723 128.87 248.38 128.345C248.511 127.689 248.773 126.901 249.167 125.983C249.692 124.933 250.414 123.948 251.333 123.03C252.12 122.111 253.039 121.324 254.089 120.667C255.27 119.88 256.385 119.486 257.435 119.486C258.223 119.486 258.879 119.683 259.404 120.077C260.585 120.602 261.635 121.324 262.553 122.242C263.603 123.03 264.128 123.948 264.128 124.998C264.128 126.179 263.472 127.426 262.16 128.739L258.026 132.676C254.613 135.957 250.873 139.763 246.805 144.093C242.736 148.293 239.193 152.361 236.175 156.299C233.287 160.236 231.712 163.385 231.45 165.748C231.319 166.141 231.253 166.535 231.253 166.929C231.253 167.323 231.253 167.716 231.253 168.11C231.253 169.947 231.581 171.194 232.237 171.85C233.025 172.506 233.812 172.835 234.6 172.835C236.568 172.835 238.865 172.047 241.49 170.472C244.246 168.897 246.805 167.191 249.167 165.354C251.661 163.385 253.432 161.942 254.482 161.023C258.288 157.611 262.028 154.199 265.703 150.787C269.378 147.243 272.987 143.831 276.53 140.55C276.53 139.369 277.121 138.319 278.302 137.4C279.483 136.35 281.32 135.825 283.814 135.825C286.701 135.825 288.867 137.072 290.31 139.566C291.885 142.059 292.672 145.209 292.672 149.015C292.672 152.033 292.213 155.511 291.294 159.448C290.376 163.254 288.932 167.388 286.964 171.85C296.15 167.782 304.681 163.517 312.555 159.055C320.429 154.593 327.844 149.146 334.8 142.715C335.587 142.059 336.506 141.141 337.556 139.959C338.737 138.778 339.852 137.663 340.902 136.613C342.215 135.432 343.396 134.447 344.446 133.66C345.627 132.873 346.414 132.545 346.808 132.676C347.464 132.938 347.792 133.463 347.792 134.251C347.792 134.776 347.464 135.563 346.808 136.613C346.283 137.532 345.43 138.647 344.249 139.959C343.068 141.272 341.559 142.912 339.721 144.881C332.503 152.099 324.432 158.398 315.508 163.779C306.584 169.029 295.888 174.147 283.42 179.134C276.99 191.733 269.378 203.675 260.585 214.962C251.923 226.248 242.605 236.157 232.631 244.687C222.788 253.349 212.749 260.108 202.512 264.964C192.275 269.951 182.367 272.444 172.787 272.444ZM169.243 266.145C174.755 266.145 181.186 264.767 188.535 262.011C195.884 259.386 203.365 255.711 210.977 250.987C218.72 246.262 225.741 240.75 232.041 234.451C234.797 231.695 238.077 228.086 241.883 223.624C245.689 219.162 249.495 214.437 253.301 209.45C257.238 204.594 260.782 199.87 263.931 195.276C267.212 190.683 269.64 186.877 271.215 183.859C261.503 186.221 251.333 189.371 240.702 193.308C230.072 197.376 219.704 201.904 209.599 206.891C199.625 212.009 190.569 217.39 182.433 223.033C174.296 228.676 167.865 234.32 163.141 239.963C158.285 245.606 155.857 251.052 155.857 256.302C155.857 259.583 157.104 262.011 159.597 263.586C161.959 265.292 165.175 266.145 169.243 266.145Z" fill="white"/>
</svg>
