<svg width="927" height="273" viewBox="0 0 927 273" fill="none" xmlns="http://www.w3.org/2000/svg">
<path d="M36.3843 30.2671C29.9117 28.6755 18.5052 26.9247 2.16458 25.0147L0.891289 18.8074C11.9265 19.0197 22.272 19.1258 31.9278 19.1258C41.4775 19.338 54.6879 19.6563 71.559 20.0807C124.188 19.2319 152.042 18.383 155.119 17.5342C155.331 17.3219 155.755 15.1467 156.392 11.0085C156.816 6.87034 157.135 3.95238 157.347 2.25465L165.146 0.822201C164.085 8.03752 162.812 21.0888 161.326 39.9759C159.522 58.8631 158.408 68.5189 157.984 68.9433C158.196 68.7311 158.408 68.5189 158.62 68.3067L151.776 65.7601V43C150.079 39.074 140.529 35.6786 123.127 32.8137C105.726 30.161 90.6053 28.8346 77.7663 28.8346C77.5541 35.8377 77.3419 44.3263 77.1296 54.3005C76.7052 64.4868 76.3869 74.7262 76.1747 85.0186C75.9625 95.4172 75.8564 107.885 75.8564 122.422C113.206 121.361 135.701 119.504 143.341 116.851C145.039 111.864 146.1 107.195 146.524 102.845L153.845 102.208C153.103 105.073 151.458 115.737 148.911 134.2C146.047 152.662 144.614 162.318 144.614 163.167L138.407 160.62C138.619 160.62 138.831 159.984 139.043 158.71C139.043 157.119 139.15 155.05 139.362 152.503C139.362 149.85 139.468 146.986 139.68 143.908C139.68 141.15 139.68 139.558 139.68 139.134C129.918 134.146 108.644 131.653 75.8564 131.653C75.8564 136.216 75.6441 140.195 75.2197 143.59C75.4319 153.67 75.9625 168.791 76.8113 188.951C77.448 209.43 77.7663 226.142 77.7663 239.087C118.83 238.45 144.932 234.577 156.074 227.468C157.559 223.542 159.947 214.099 163.236 199.137L170.717 197.068C164.881 228.582 161.273 253.571 159.894 272.033L153.05 270.76V251.183C151.14 250.547 142.386 249.91 126.788 249.273C110.872 248.849 88.0057 248.424 58.1894 248C28.0549 248.849 8.95547 249.486 0.891289 249.91L2.80123 242.748C17.4441 241.687 28.6384 240.254 36.3843 238.45C37.7637 179.773 38.4534 140.248 38.4534 119.875C38.4534 86.8755 37.7637 57.0062 36.3843 30.2671ZM205.891 249.273L207.165 242.748C208.544 242.535 212.894 241.899 220.216 240.838C227.643 239.671 232.418 238.663 234.54 237.814C237.405 226.778 240.376 157.808 243.453 30.9037C241.437 29.8426 235.761 28.7285 226.423 27.5613C220.163 26.9247 215.388 26.6064 212.099 26.6064C210.401 26.6064 208.968 26.7125 207.801 26.9247L205.891 20.0807C221.065 19.2319 235.867 18.5952 250.297 18.1708C264.41 17.9586 274.49 17.7464 280.538 17.5342C289.663 30.161 299.956 43.7428 311.415 58.2795C322.981 72.8162 339.64 92.8175 361.392 118.283C382.932 143.855 399.644 163.591 411.528 177.491C423.518 191.71 429.725 199.137 430.15 199.774C430.15 197.97 429.938 180.356 429.513 146.932C429.089 113.721 428.558 88.8385 427.922 72.2857C427.285 55.9451 425.64 41.7267 422.988 29.6304C419.274 29.0999 414.181 28.198 407.708 26.9247C401.129 25.8636 395.24 25.227 390.041 25.0147L388.131 18.8074C395.983 19.0197 403.145 19.1258 409.618 19.1258C416.197 19.338 424.473 19.6563 434.447 20.0807C445.27 19.6563 453.494 19.338 459.117 19.1258C464.847 19.1258 471.054 19.0197 477.739 18.8074L476.466 25.0147C474.025 25.4392 469.887 26.3411 464.051 27.7205C458.215 28.9938 454.077 29.8426 451.637 30.2671C450.363 33.4503 449.196 43.2122 448.135 59.5528C446.756 76.1056 445.642 97.221 444.793 122.899C443.944 148.471 443.095 174.733 442.246 201.684C441.397 228.848 440.761 249.804 440.336 264.553C429.195 251.926 416.144 237.071 401.182 219.988C386.221 202.798 371.101 185.29 355.821 167.464C340.436 149.85 322.185 128.576 301.07 103.641C279.954 78.5991 264.516 60.0833 254.754 48.0932C254.966 60.5078 255.284 76.3709 255.709 95.6825C256.027 115.312 256.611 136.958 257.46 160.62C258.308 184.495 259.051 202.108 259.688 213.462C260.325 224.709 261.067 232.827 261.916 237.814C263.932 238.663 269.821 239.671 279.583 240.838C289.345 242.111 295.34 242.748 297.568 242.748L298.842 249.273C290.565 248.849 282.501 248.531 274.649 248.318C266.903 248.318 258.468 248.212 249.342 248C241.915 248.212 235.018 248.318 228.651 248.318C222.179 248.531 214.592 248.849 205.891 249.273ZM489.87 17.3115H569.362C569.81 17.401 570.034 17.6248 570.034 17.9829V25.0996C570.034 25.5472 567.393 26.2186 562.111 27.1138C554.234 30.0679 550.295 33.2458 550.295 36.6475C549.668 36.916 549.221 39.333 548.952 43.8984V44.167C548.952 52.8503 553.339 70.172 562.111 96.1323C566.14 109.65 578.001 150.38 597.695 218.325C640.753 111.44 662.282 57.5947 662.282 56.7891C664.252 50.5228 665.236 45.3755 665.236 41.3472V38.3931C665.236 28.8146 661.342 24.5177 653.554 25.5024C645.856 26.4871 638.649 29.7993 631.936 35.439C639.366 15.2078 663.759 9.16536 705.117 17.3115C705.564 17.401 705.788 17.6248 705.788 17.9829V25.0996C705.788 25.4577 703.371 26.3529 698.537 27.7852C691.823 30.6497 685.691 38.1245 680.141 50.2095C677.097 57.1919 650.6 123.122 600.649 248L574.599 257.937C578.18 250.059 575.987 237.213 568.02 219.399C534.54 115.11 515.607 56.9233 511.22 44.8384C507.102 35.9761 503.745 30.4259 501.149 28.188C499.717 27.4718 497.076 26.5767 493.227 25.5024L489.199 17.9829C489.288 17.5353 489.512 17.3115 489.87 17.3115ZM719.216 17.7144H794.814C795.262 17.8039 795.485 18.0277 795.485 18.3857V25.6367C795.485 26.0843 793.158 26.6662 788.503 27.3823C781.879 29.7098 778.566 33.5591 778.566 38.9302V39.8701C778.566 46.584 783.579 58.2214 793.605 74.7822L828.518 136.281C862.355 82.6598 879.274 53.6559 879.274 49.2695C887.152 26.8005 879.498 18.341 856.313 23.8911C866.518 9.83675 889.838 7.77783 926.271 17.7144C926.719 17.8039 926.943 18.0277 926.943 18.3857V25.6367L917.678 30.605C913.023 33.201 907.92 38.1693 902.37 45.5098C893.329 58.5794 872.74 91.1193 840.603 143.129C837.559 147.516 836.037 150.157 836.037 151.052V209.865C836.037 222.845 839.125 231.126 845.302 234.707C847.272 236.139 852.24 237.795 860.207 239.675V247.329C860.207 247.776 859.983 248 859.536 248H778.298C777.85 248 777.626 247.776 777.626 247.329V240.078C777.626 239.72 781.162 238.69 788.234 236.989C793.068 234.93 796.157 232.424 797.5 229.47C800.364 225.531 801.796 218.414 801.796 208.12V151.052C767.511 90.8955 746.161 54.193 737.746 40.9443C731.748 33.2458 726.556 28.8146 722.17 27.6509C719.753 26.5767 718.544 25.9053 718.544 25.6367V18.3857C718.634 17.9382 718.858 17.7144 719.216 17.7144Z" fill="white"/>
</svg>
